<svg xmlns="http://www.w3.org/2000/svg" xmlns:xlink="http://www.w3.org/1999/xlink" width="1080" zoomAndPan="magnify" viewBox="0 0 810 809.999993" height="1080" preserveAspectRatio="xMidYMid meet" version="1.0"><defs><g/></defs><g fill="#000000" fill-opacity="1"><g transform="translate(380.656584, 428.999998)"><g><path d="M 3.300781 -60.636719 L 12.210938 -60.636719 L 12.210938 -8.25 L 24.007812 -8.25 L 24.007812 0 L 3.300781 0 Z M 3.300781 -60.636719 "/></g></g></g><g fill="#000000" fill-opacity="1"><g transform="translate(404.994057, 428.999998)"><g><path d="M 3.300781 -60.636719 L 12.210938 -60.636719 L 12.210938 -8.25 L 24.007812 -8.25 L 24.007812 0 L 3.300781 0 Z M 3.300781 -60.636719 "/></g></g></g><g fill="#ffffff" fill-opacity="1"><g transform="translate(221.551119, 471.562508)"><g><path d="M 11.171875 -3.15625 C 11.296875 -2.789062 11.40625 -2.382812 11.5 -1.9375 C 11.601562 -1.488281 11.640625 -1.125 11.609375 -0.84375 L 12.984375 -0.921875 L 12.9375 0 L 8.375 0 L 8.40625 -0.6875 C 9.238281 -0.707031 9.65625 -1.0625 9.65625 -1.75 C 9.65625 -1.976562 9.597656 -2.289062 9.484375 -2.6875 L 8.890625 -4.65625 L 3.5 -4.53125 L 2.671875 -2.28125 C 2.460938 -1.738281 2.242188 -1.257812 2.015625 -0.84375 L 3.59375 -0.921875 L 3.546875 0 L -0.296875 0 L -0.265625 -0.6875 C 0.222656 -0.707031 0.625 -0.925781 0.9375 -1.34375 C 1.25 -1.757812 1.585938 -2.414062 1.953125 -3.3125 L 6.703125 -15.09375 L 7.15625 -15.09375 Z M 6.40625 -12.1875 L 5.515625 -9.828125 C 5.347656 -9.421875 4.921875 -8.300781 4.234375 -6.46875 L 3.84375 -5.4375 L 8.65625 -5.4375 C 7.851562 -7.945312 7.117188 -10.195312 6.453125 -12.1875 Z M 6.40625 -12.1875 "/></g></g></g><g fill="#ffffff" fill-opacity="1"><g transform="translate(234.802176, 471.562508)"><g/></g></g><g fill="#ffffff" fill-opacity="1"><g transform="translate(240.325197, 471.562508)"><g><path d="M 4.765625 -10.734375 C 5.585938 -10.734375 6.3125 -10.539062 6.9375 -10.15625 C 7.5625 -9.769531 7.875 -9.273438 7.875 -8.671875 C 7.875 -8.378906 7.789062 -8.144531 7.625 -7.96875 C 7.457031 -7.789062 7.25 -7.703125 7 -7.703125 C 6.757812 -7.703125 6.554688 -7.785156 6.390625 -7.953125 C 6.234375 -8.128906 6.15625 -8.328125 6.15625 -8.546875 C 6.15625 -8.785156 6.21875 -9.003906 6.34375 -9.203125 C 6.257812 -9.453125 6.078125 -9.648438 5.796875 -9.796875 C 5.515625 -9.953125 5.148438 -10.03125 4.703125 -10.03125 C 4.210938 -10.03125 3.765625 -9.875 3.359375 -9.5625 C 2.960938 -9.25 2.765625 -8.851562 2.765625 -8.375 C 2.765625 -7.96875 2.945312 -7.601562 3.3125 -7.28125 C 3.675781 -6.957031 4.238281 -6.582031 5 -6.15625 C 5.625 -5.789062 6.132812 -5.460938 6.53125 -5.171875 C 6.925781 -4.890625 7.257812 -4.550781 7.53125 -4.15625 C 7.800781 -3.757812 7.9375 -3.316406 7.9375 -2.828125 C 7.9375 -2.242188 7.769531 -1.71875 7.4375 -1.25 C 7.113281 -0.789062 6.648438 -0.425781 6.046875 -0.15625 C 5.441406 0.101562 4.753906 0.234375 3.984375 0.234375 C 3.078125 0.234375 2.289062 0.03125 1.625 -0.375 C 0.957031 -0.78125 0.625 -1.328125 0.625 -2.015625 C 0.625 -2.304688 0.710938 -2.550781 0.890625 -2.75 C 1.066406 -2.945312 1.28125 -3.046875 1.53125 -3.046875 C 1.800781 -3.046875 2.007812 -2.957031 2.15625 -2.78125 C 2.3125 -2.601562 2.390625 -2.394531 2.390625 -2.15625 C 2.390625 -1.925781 2.328125 -1.710938 2.203125 -1.515625 C 2.304688 -1.222656 2.523438 -0.988281 2.859375 -0.8125 C 3.191406 -0.632812 3.554688 -0.546875 3.953125 -0.546875 C 4.691406 -0.546875 5.253906 -0.71875 5.640625 -1.0625 C 6.023438 -1.40625 6.21875 -1.898438 6.21875 -2.546875 C 6.21875 -3.003906 6.019531 -3.40625 5.625 -3.75 C 5.238281 -4.101562 4.644531 -4.515625 3.84375 -4.984375 C 2.945312 -5.492188 2.269531 -5.957031 1.8125 -6.375 C 1.363281 -6.800781 1.140625 -7.304688 1.140625 -7.890625 C 1.140625 -8.398438 1.289062 -8.867188 1.59375 -9.296875 C 1.90625 -9.734375 2.335938 -10.082031 2.890625 -10.34375 C 3.441406 -10.601562 4.066406 -10.734375 4.765625 -10.734375 Z M 4.765625 -10.734375 "/></g></g></g><g fill="#ffffff" fill-opacity="1"><g transform="translate(249.313238, 471.562508)"><g><path d="M 4.171875 -10.5 L 7.515625 -10.5 L 7.453125 -9.703125 L 4.09375 -9.65625 L 3.953125 -8.3125 C 3.640625 -5.65625 3.484375 -3.773438 3.484375 -2.671875 C 3.484375 -2.117188 3.546875 -1.675781 3.671875 -1.34375 C 3.796875 -1.007812 4.0625 -0.84375 4.46875 -0.84375 C 5.195312 -0.84375 5.859375 -1.332031 6.453125 -2.3125 L 7 -1.953125 C 6.5625 -1.210938 6.109375 -0.660156 5.640625 -0.296875 C 5.171875 0.0546875 4.613281 0.234375 3.96875 0.234375 C 3.195312 0.234375 2.640625 0.00390625 2.296875 -0.453125 C 1.953125 -0.921875 1.78125 -1.519531 1.78125 -2.25 C 1.78125 -3.0625 1.828125 -4.128906 1.921875 -5.453125 C 2.023438 -6.773438 2.160156 -8.171875 2.328125 -9.640625 L 0.46875 -9.625 L 0.53125 -10.5 C 1.363281 -10.5 2.039062 -10.742188 2.5625 -11.234375 C 3.082031 -11.734375 3.484375 -12.476562 3.765625 -13.46875 L 4.5625 -13.46875 Z M 4.171875 -10.5 "/></g></g></g><g fill="#ffffff" fill-opacity="1"><g transform="translate(256.957273, 471.562508)"><g><path d="M 6 -10.734375 C 6.757812 -10.734375 7.441406 -10.550781 8.046875 -10.1875 C 8.660156 -9.820312 9.140625 -9.289062 9.484375 -8.59375 C 9.828125 -7.90625 10 -7.082031 10 -6.125 C 10 -4.976562 9.789062 -3.921875 9.375 -2.953125 C 8.957031 -1.992188 8.359375 -1.222656 7.578125 -0.640625 C 6.804688 -0.0546875 5.894531 0.234375 4.84375 0.234375 C 3.519531 0.234375 2.515625 -0.203125 1.828125 -1.078125 C 1.148438 -1.953125 0.8125 -3.082031 0.8125 -4.46875 C 0.8125 -5.613281 1.019531 -6.660156 1.4375 -7.609375 C 1.863281 -8.566406 2.46875 -9.328125 3.25 -9.890625 C 4.039062 -10.453125 4.957031 -10.734375 6 -10.734375 Z M 5.671875 -9.953125 C 5.054688 -9.953125 4.519531 -9.726562 4.0625 -9.28125 C 3.601562 -8.84375 3.253906 -8.242188 3.015625 -7.484375 C 2.785156 -6.722656 2.671875 -5.875 2.671875 -4.9375 C 2.671875 -3.769531 2.859375 -2.75 3.234375 -1.875 C 3.609375 -1 4.222656 -0.5625 5.078125 -0.5625 C 5.796875 -0.5625 6.378906 -0.832031 6.828125 -1.375 C 7.285156 -1.925781 7.617188 -2.597656 7.828125 -3.390625 C 8.035156 -4.191406 8.140625 -4.972656 8.140625 -5.734375 C 8.140625 -6.910156 7.953125 -7.90625 7.578125 -8.71875 C 7.210938 -9.539062 6.578125 -9.953125 5.671875 -9.953125 Z M 5.671875 -9.953125 "/></g></g></g><g fill="#ffffff" fill-opacity="1"><g transform="translate(267.898316, 471.562508)"><g><path d="M 8.125 -10.734375 C 8.5625 -10.734375 8.914062 -10.625 9.1875 -10.40625 C 9.457031 -10.1875 9.59375 -9.890625 9.59375 -9.515625 C 9.59375 -9.242188 9.5 -9.003906 9.3125 -8.796875 C 9.132812 -8.597656 8.90625 -8.5 8.625 -8.5 C 8.375 -8.5 8.15625 -8.578125 7.96875 -8.734375 C 7.789062 -8.890625 7.691406 -9.109375 7.671875 -9.390625 C 7.609375 -9.398438 7.53125 -9.40625 7.4375 -9.40625 C 6.84375 -9.40625 6.265625 -8.9375 5.703125 -8 C 5.148438 -7.0625 4.695312 -5.921875 4.34375 -4.578125 C 4 -3.234375 3.828125 -2.007812 3.828125 -0.90625 C 3.828125 -0.78125 3.835938 -0.476562 3.859375 0 L 2.125 0 C 2.101562 -0.125 2.09375 -0.304688 2.09375 -0.546875 C 2.09375 -1.398438 2.207031 -2.832031 2.4375 -4.84375 L 2.703125 -7.28125 C 2.785156 -8.007812 2.828125 -8.492188 2.828125 -8.734375 C 2.828125 -9.023438 2.789062 -9.253906 2.71875 -9.421875 C 2.644531 -9.597656 2.492188 -9.6875 2.265625 -9.6875 C 2.003906 -9.6875 1.734375 -9.515625 1.453125 -9.171875 C 1.171875 -8.835938 0.929688 -8.328125 0.734375 -7.640625 L 0.140625 -7.765625 C 0.210938 -8.160156 0.363281 -8.585938 0.59375 -9.046875 C 0.820312 -9.515625 1.128906 -9.910156 1.515625 -10.234375 C 1.898438 -10.566406 2.351562 -10.734375 2.875 -10.734375 C 3.425781 -10.734375 3.816406 -10.554688 4.046875 -10.203125 C 4.285156 -9.859375 4.40625 -9.351562 4.40625 -8.6875 C 4.40625 -8.050781 4.300781 -7.207031 4.09375 -6.15625 L 4.15625 -6.15625 C 4.726562 -7.84375 5.34375 -9.023438 6 -9.703125 C 6.664062 -10.390625 7.375 -10.734375 8.125 -10.734375 Z M 8.125 -10.734375 "/></g></g></g><g fill="#ffffff" fill-opacity="1"><g transform="translate(277.453354, 471.562508)"><g><path d="M 8.109375 -10.734375 C 8.691406 -10.734375 9.113281 -10.472656 9.375 -9.953125 C 9.644531 -9.429688 9.78125 -8.796875 9.78125 -8.046875 C 9.78125 -6.765625 9.53125 -5.425781 9.03125 -4.03125 C 8.53125 -2.644531 7.851562 -1.179688 7 0.359375 C 5.988281 2.203125 5.023438 3.550781 4.109375 4.40625 C 3.203125 5.257812 2.316406 5.6875 1.453125 5.6875 C 0.941406 5.6875 0.53125 5.5625 0.21875 5.3125 C -0.09375 5.0625 -0.25 4.75 -0.25 4.375 C -0.25 4.070312 -0.160156 3.832031 0.015625 3.65625 C 0.203125 3.488281 0.398438 3.40625 0.609375 3.40625 C 0.898438 3.40625 1.125 3.5 1.28125 3.6875 C 1.445312 3.875 1.523438 4.144531 1.515625 4.5 C 1.710938 4.59375 1.863281 4.640625 1.96875 4.640625 C 2.5 4.671875 3.066406 4.332031 3.671875 3.625 C 4.285156 2.925781 4.789062 2.242188 5.1875 1.578125 C 4.9375 -0.148438 4.585938 -1.890625 4.140625 -3.640625 C 3.691406 -5.390625 3.1875 -6.941406 2.625 -8.296875 C 2.457031 -8.660156 2.3125 -8.925781 2.1875 -9.09375 C 2.0625 -9.269531 1.882812 -9.359375 1.65625 -9.359375 C 1.414062 -9.359375 1.222656 -9.210938 1.078125 -8.921875 C 0.929688 -8.628906 0.859375 -8.234375 0.859375 -7.734375 C 0.859375 -7.492188 0.863281 -7.3125 0.875 -7.1875 L 0.203125 -7.09375 C 0.191406 -7.238281 0.1875 -7.453125 0.1875 -7.734375 C 0.1875 -8.554688 0.335938 -9.257812 0.640625 -9.84375 C 0.941406 -10.4375 1.4375 -10.734375 2.125 -10.734375 C 2.75 -10.734375 3.234375 -10.507812 3.578125 -10.0625 C 3.929688 -9.625 4.238281 -9.054688 4.5 -8.359375 C 4.769531 -7.597656 5.019531 -6.78125 5.25 -5.90625 C 5.476562 -5.03125 5.742188 -3.910156 6.046875 -2.546875 C 6.128906 -2.140625 6.234375 -1.425781 6.359375 -0.40625 L 6.40625 -0.40625 C 7.070312 -1.570312 7.632812 -2.800781 8.09375 -4.09375 C 8.5625 -5.394531 8.796875 -6.570312 8.796875 -7.625 C 8.796875 -7.957031 8.765625 -8.253906 8.703125 -8.515625 C 8.640625 -8.785156 8.566406 -8.984375 8.484375 -9.109375 C 8.359375 -9.023438 8.179688 -8.984375 7.953125 -8.984375 C 7.703125 -8.984375 7.5 -9.0625 7.34375 -9.21875 C 7.195312 -9.382812 7.125 -9.582031 7.125 -9.8125 C 7.125 -10.101562 7.21875 -10.328125 7.40625 -10.484375 C 7.601562 -10.648438 7.835938 -10.734375 8.109375 -10.734375 Z M 8.109375 -10.734375 "/></g></g></g><g fill="#ffffff" fill-opacity="1"><g transform="translate(288.247398, 471.562508)"><g/></g></g><g fill="#ffffff" fill-opacity="1"><g transform="translate(293.770419, 471.562508)"><g><path d="M 6.90625 -10.734375 C 7.863281 -10.734375 8.800781 -10.613281 9.71875 -10.375 C 9.101562 -5.8125 8.796875 -3.007812 8.796875 -1.96875 C 8.796875 -1.601562 8.832031 -1.316406 8.90625 -1.109375 C 8.976562 -0.910156 9.140625 -0.8125 9.390625 -0.8125 C 9.648438 -0.8125 9.921875 -0.976562 10.203125 -1.3125 C 10.484375 -1.65625 10.722656 -2.171875 10.921875 -2.859375 L 11.515625 -2.734375 C 11.441406 -2.335938 11.285156 -1.90625 11.046875 -1.4375 C 10.816406 -0.976562 10.507812 -0.582031 10.125 -0.25 C 9.75 0.0703125 9.300781 0.234375 8.78125 0.234375 C 7.738281 0.234375 7.21875 -0.394531 7.21875 -1.65625 C 7.21875 -2.269531 7.347656 -3.207031 7.609375 -4.46875 L 7.53125 -4.46875 C 6.945312 -2.625 6.304688 -1.378906 5.609375 -0.734375 C 4.910156 -0.0859375 4.1875 0.234375 3.4375 0.234375 C 2.625 0.234375 1.976562 -0.0546875 1.5 -0.640625 C 1.019531 -1.234375 0.78125 -2.160156 0.78125 -3.421875 C 0.78125 -4.765625 1.007812 -5.988281 1.46875 -7.09375 C 1.925781 -8.195312 2.617188 -9.078125 3.546875 -9.734375 C 4.472656 -10.398438 5.59375 -10.734375 6.90625 -10.734375 Z M 6.265625 -9.96875 C 5.453125 -9.96875 4.765625 -9.675781 4.203125 -9.09375 C 3.640625 -8.519531 3.222656 -7.757812 2.953125 -6.8125 C 2.679688 -5.863281 2.546875 -4.851562 2.546875 -3.78125 C 2.546875 -1.71875 3 -0.6875 3.90625 -0.6875 C 4.519531 -0.6875 5.132812 -1.171875 5.75 -2.140625 C 6.363281 -3.109375 6.875 -4.300781 7.28125 -5.71875 C 7.6875 -7.144531 7.890625 -8.476562 7.890625 -9.71875 C 7.472656 -9.882812 6.929688 -9.96875 6.265625 -9.96875 Z M 6.265625 -9.96875 "/></g></g></g><g fill="#ffffff" fill-opacity="1"><g transform="translate(305.278471, 471.562508)"><g><path d="M 4.09375 -15.859375 C 3.957031 -14.941406 3.804688 -13.757812 3.640625 -12.3125 L 3.5 -10.984375 C 3.414062 -10.285156 3.257812 -8.710938 3.03125 -6.265625 L 3.09375 -6.265625 C 3.582031 -8.066406 4.171875 -9.257812 4.859375 -9.84375 C 5.554688 -10.4375 6.316406 -10.734375 7.140625 -10.734375 C 8.046875 -10.734375 8.707031 -10.367188 9.125 -9.640625 C 9.550781 -8.910156 9.765625 -7.984375 9.765625 -6.859375 C 9.765625 -4.773438 9.285156 -3.070312 8.328125 -1.75 C 7.367188 -0.425781 5.910156 0.234375 3.953125 0.234375 C 3.523438 0.234375 3.054688 0.195312 2.546875 0.125 C 2.035156 0.0507812 1.585938 -0.0546875 1.203125 -0.203125 L 1.515625 -5.109375 C 1.773438 -9.035156 1.976562 -11.804688 2.125 -13.421875 C 2.164062 -13.921875 2.207031 -14.289062 2.25 -14.53125 L 0.734375 -14.453125 L 0.8125 -15.28125 C 1.65625 -15.28125 2.257812 -15.328125 2.625 -15.421875 C 2.988281 -15.523438 3.273438 -15.671875 3.484375 -15.859375 Z M 6.578125 -9.75 C 5.941406 -9.75 5.332031 -9.28125 4.75 -8.34375 C 4.175781 -7.40625 3.707031 -6.242188 3.34375 -4.859375 C 2.976562 -3.484375 2.78125 -2.191406 2.75 -0.984375 C 2.90625 -0.828125 3.128906 -0.707031 3.421875 -0.625 C 3.710938 -0.539062 4.007812 -0.5 4.3125 -0.5 C 5.65625 -0.519531 6.597656 -1.117188 7.140625 -2.296875 C 7.679688 -3.484375 7.953125 -4.875 7.953125 -6.46875 C 7.953125 -8.65625 7.492188 -9.75 6.578125 -9.75 Z M 6.578125 -9.75 "/></g></g></g><g fill="#ffffff" fill-opacity="1"><g transform="translate(316.009516, 471.562508)"><g><path d="M 6 -10.734375 C 6.757812 -10.734375 7.441406 -10.550781 8.046875 -10.1875 C 8.660156 -9.820312 9.140625 -9.289062 9.484375 -8.59375 C 9.828125 -7.90625 10 -7.082031 10 -6.125 C 10 -4.976562 9.789062 -3.921875 9.375 -2.953125 C 8.957031 -1.992188 8.359375 -1.222656 7.578125 -0.640625 C 6.804688 -0.0546875 5.894531 0.234375 4.84375 0.234375 C 3.519531 0.234375 2.515625 -0.203125 1.828125 -1.078125 C 1.148438 -1.953125 0.8125 -3.082031 0.8125 -4.46875 C 0.8125 -5.613281 1.019531 -6.660156 1.4375 -7.609375 C 1.863281 -8.566406 2.46875 -9.328125 3.25 -9.890625 C 4.039062 -10.453125 4.957031 -10.734375 6 -10.734375 Z M 5.671875 -9.953125 C 5.054688 -9.953125 4.519531 -9.726562 4.0625 -9.28125 C 3.601562 -8.84375 3.253906 -8.242188 3.015625 -7.484375 C 2.785156 -6.722656 2.671875 -5.875 2.671875 -4.9375 C 2.671875 -3.769531 2.859375 -2.75 3.234375 -1.875 C 3.609375 -1 4.222656 -0.5625 5.078125 -0.5625 C 5.796875 -0.5625 6.378906 -0.832031 6.828125 -1.375 C 7.285156 -1.925781 7.617188 -2.597656 7.828125 -3.390625 C 8.035156 -4.191406 8.140625 -4.972656 8.140625 -5.734375 C 8.140625 -6.910156 7.953125 -7.90625 7.578125 -8.71875 C 7.210938 -9.539062 6.578125 -9.953125 5.671875 -9.953125 Z M 5.671875 -9.953125 "/></g></g></g><g fill="#ffffff" fill-opacity="1"><g transform="translate(326.950559, 471.562508)"><g><path d="M 2.796875 -10.734375 C 3.359375 -10.734375 3.78125 -10.554688 4.0625 -10.203125 C 4.351562 -9.859375 4.5 -9.351562 4.5 -8.6875 C 4.5 -8.1875 4.382812 -7.140625 4.15625 -5.546875 C 4.144531 -5.421875 4.082031 -4.945312 3.96875 -4.125 C 3.851562 -3.300781 3.796875 -2.617188 3.796875 -2.078125 C 3.796875 -1.742188 3.867188 -1.4375 4.015625 -1.15625 C 4.160156 -0.882812 4.414062 -0.75 4.78125 -0.75 C 5.40625 -0.75 6.023438 -1.210938 6.640625 -2.140625 C 7.253906 -3.078125 7.757812 -4.222656 8.15625 -5.578125 C 8.550781 -6.941406 8.75 -8.210938 8.75 -9.390625 C 8.75 -9.648438 8.738281 -10.019531 8.71875 -10.5 L 10.484375 -10.5 C 10.492188 -10.375 10.5 -10.191406 10.5 -9.953125 C 10.5 -9.617188 10.460938 -9.097656 10.390625 -8.390625 C 10.328125 -7.691406 10.222656 -6.785156 10.078125 -5.671875 L 9.875 -3.921875 C 9.851562 -3.742188 9.816406 -3.410156 9.765625 -2.921875 C 9.710938 -2.429688 9.6875 -2.046875 9.6875 -1.765625 C 9.6875 -1.148438 9.875 -0.84375 10.25 -0.84375 C 10.507812 -0.84375 10.78125 -1.003906 11.0625 -1.328125 C 11.34375 -1.660156 11.582031 -2.171875 11.78125 -2.859375 L 12.375 -2.734375 C 12.300781 -2.335938 12.148438 -1.90625 11.921875 -1.4375 C 11.691406 -0.976562 11.382812 -0.582031 11 -0.25 C 10.613281 0.0703125 10.160156 0.234375 9.640625 0.234375 C 9.085938 0.234375 8.675781 0.0664062 8.40625 -0.265625 C 8.144531 -0.609375 8.015625 -1.070312 8.015625 -1.65625 C 8.015625 -2.269531 8.144531 -3.207031 8.40625 -4.46875 L 8.34375 -4.46875 C 7.664062 -2.664062 7.019531 -1.429688 6.40625 -0.765625 C 5.789062 -0.0976562 5.113281 0.234375 4.375 0.234375 C 3.582031 0.234375 3 -0.0195312 2.625 -0.53125 C 2.257812 -1.039062 2.078125 -1.695312 2.078125 -2.5 C 2.078125 -3.101562 2.109375 -3.710938 2.171875 -4.328125 C 2.242188 -4.941406 2.351562 -5.679688 2.5 -6.546875 C 2.53125 -6.703125 2.578125 -7.03125 2.640625 -7.53125 C 2.710938 -8.03125 2.75 -8.414062 2.75 -8.6875 C 2.75 -9.007812 2.707031 -9.253906 2.625 -9.421875 C 2.550781 -9.597656 2.40625 -9.6875 2.1875 -9.6875 C 1.9375 -9.6875 1.675781 -9.519531 1.40625 -9.1875 C 1.144531 -8.851562 0.914062 -8.335938 0.71875 -7.640625 L 0.125 -7.765625 C 0.25 -8.453125 0.539062 -9.117188 1 -9.765625 C 1.457031 -10.410156 2.054688 -10.734375 2.796875 -10.734375 Z M 2.796875 -10.734375 "/></g></g></g><g fill="#ffffff" fill-opacity="1"><g transform="translate(339.403607, 471.562508)"><g><path d="M 4.171875 -10.5 L 7.515625 -10.5 L 7.453125 -9.703125 L 4.09375 -9.65625 L 3.953125 -8.3125 C 3.640625 -5.65625 3.484375 -3.773438 3.484375 -2.671875 C 3.484375 -2.117188 3.546875 -1.675781 3.671875 -1.34375 C 3.796875 -1.007812 4.0625 -0.84375 4.46875 -0.84375 C 5.195312 -0.84375 5.859375 -1.332031 6.453125 -2.3125 L 7 -1.953125 C 6.5625 -1.210938 6.109375 -0.660156 5.640625 -0.296875 C 5.171875 0.0546875 4.613281 0.234375 3.96875 0.234375 C 3.195312 0.234375 2.640625 0.00390625 2.296875 -0.453125 C 1.953125 -0.921875 1.78125 -1.519531 1.78125 -2.25 C 1.78125 -3.0625 1.828125 -4.128906 1.921875 -5.453125 C 2.023438 -6.773438 2.160156 -8.171875 2.328125 -9.640625 L 0.46875 -9.625 L 0.53125 -10.5 C 1.363281 -10.5 2.039062 -10.742188 2.5625 -11.234375 C 3.082031 -11.734375 3.484375 -12.476562 3.765625 -13.46875 L 4.5625 -13.46875 Z M 4.171875 -10.5 "/></g></g></g><g fill="#ffffff" fill-opacity="1"><g transform="translate(347.047642, 471.562508)"><g/></g></g><g fill="#ffffff" fill-opacity="1"><g transform="translate(352.570663, 471.562508)"><g><path d="M 6.71875 -15.953125 C 7.207031 -15.953125 7.582031 -15.859375 7.84375 -15.671875 C 8.113281 -15.484375 8.25 -15.21875 8.25 -14.875 C 8.25 -14.675781 8.179688 -14.484375 8.046875 -14.296875 C 7.921875 -14.117188 7.722656 -14.03125 7.453125 -14.03125 C 7.171875 -14.03125 6.945312 -14.125 6.78125 -14.3125 C 6.625 -14.507812 6.554688 -14.765625 6.578125 -15.078125 C 6.492188 -15.128906 6.332031 -15.15625 6.09375 -15.15625 C 5.4375 -15.15625 4.960938 -14.765625 4.671875 -13.984375 C 4.378906 -13.203125 4.171875 -12.039062 4.046875 -10.5 L 7.03125 -10.5 L 6.96875 -9.6875 L 3.984375 -9.640625 L 3.921875 -8.46875 C 3.828125 -6.820312 3.753906 -5.648438 3.703125 -4.953125 L 3.5625 -3.46875 C 3.394531 -1.40625 3.195312 0.222656 2.96875 1.421875 C 2.75 2.617188 2.332031 3.628906 1.71875 4.453125 C 1.101562 5.273438 0.203125 5.6875 -0.984375 5.6875 C -1.515625 5.6875 -1.921875 5.59375 -2.203125 5.40625 C -2.484375 5.226562 -2.625 4.957031 -2.625 4.59375 C -2.625 4.40625 -2.550781 4.210938 -2.40625 4.015625 C -2.269531 3.828125 -2.070312 3.734375 -1.8125 3.734375 C -1.539062 3.734375 -1.328125 3.820312 -1.171875 4 C -1.015625 4.175781 -0.9375 4.410156 -0.9375 4.703125 C -0.789062 4.816406 -0.59375 4.875 -0.34375 4.875 C 0.164062 4.875 0.550781 4.597656 0.8125 4.046875 C 1.082031 3.492188 1.269531 2.773438 1.375 1.890625 C 1.488281 1.003906 1.613281 -0.300781 1.75 -2.03125 C 1.832031 -3.4375 1.90625 -4.472656 1.96875 -5.140625 L 2.09375 -6.65625 C 2.164062 -7.707031 2.253906 -8.695312 2.359375 -9.625 L 0.5 -9.59375 L 0.609375 -10.5 L 2.453125 -10.5 C 2.703125 -12.238281 3.140625 -13.582031 3.765625 -14.53125 C 4.398438 -15.476562 5.382812 -15.953125 6.71875 -15.953125 Z M 6.71875 -15.953125 "/></g></g></g><g fill="#ffffff" fill-opacity="1"><g transform="translate(359.395691, 471.562508)"><g><path d="M 6.90625 -10.734375 C 7.863281 -10.734375 8.800781 -10.613281 9.71875 -10.375 C 9.101562 -5.8125 8.796875 -3.007812 8.796875 -1.96875 C 8.796875 -1.601562 8.832031 -1.316406 8.90625 -1.109375 C 8.976562 -0.910156 9.140625 -0.8125 9.390625 -0.8125 C 9.648438 -0.8125 9.921875 -0.976562 10.203125 -1.3125 C 10.484375 -1.65625 10.722656 -2.171875 10.921875 -2.859375 L 11.515625 -2.734375 C 11.441406 -2.335938 11.285156 -1.90625 11.046875 -1.4375 C 10.816406 -0.976562 10.507812 -0.582031 10.125 -0.25 C 9.75 0.0703125 9.300781 0.234375 8.78125 0.234375 C 7.738281 0.234375 7.21875 -0.394531 7.21875 -1.65625 C 7.21875 -2.269531 7.347656 -3.207031 7.609375 -4.46875 L 7.53125 -4.46875 C 6.945312 -2.625 6.304688 -1.378906 5.609375 -0.734375 C 4.910156 -0.0859375 4.1875 0.234375 3.4375 0.234375 C 2.625 0.234375 1.976562 -0.0546875 1.5 -0.640625 C 1.019531 -1.234375 0.78125 -2.160156 0.78125 -3.421875 C 0.78125 -4.765625 1.007812 -5.988281 1.46875 -7.09375 C 1.925781 -8.195312 2.617188 -9.078125 3.546875 -9.734375 C 4.472656 -10.398438 5.59375 -10.734375 6.90625 -10.734375 Z M 6.265625 -9.96875 C 5.453125 -9.96875 4.765625 -9.675781 4.203125 -9.09375 C 3.640625 -8.519531 3.222656 -7.757812 2.953125 -6.8125 C 2.679688 -5.863281 2.546875 -4.851562 2.546875 -3.78125 C 2.546875 -1.71875 3 -0.6875 3.90625 -0.6875 C 4.519531 -0.6875 5.132812 -1.171875 5.75 -2.140625 C 6.363281 -3.109375 6.875 -4.300781 7.28125 -5.71875 C 7.6875 -7.144531 7.890625 -8.476562 7.890625 -9.71875 C 7.472656 -9.882812 6.929688 -9.96875 6.265625 -9.96875 Z M 6.265625 -9.96875 "/></g></g></g><g fill="#ffffff" fill-opacity="1"><g transform="translate(370.903743, 471.562508)"><g><path d="M 4.265625 -14.359375 C 4.097656 -13.378906 3.992188 -12.6875 3.953125 -12.28125 C 3.722656 -10.644531 3.503906 -8.742188 3.296875 -6.578125 C 3.097656 -4.421875 3 -2.863281 3 -1.90625 C 3 -1.5625 3.035156 -1.289062 3.109375 -1.09375 C 3.179688 -0.90625 3.332031 -0.8125 3.5625 -0.8125 C 3.832031 -0.8125 4.109375 -0.976562 4.390625 -1.3125 C 4.671875 -1.644531 4.910156 -2.160156 5.109375 -2.859375 L 5.6875 -2.703125 C 5.625 -2.316406 5.476562 -1.894531 5.25 -1.4375 C 5.019531 -0.976562 4.710938 -0.582031 4.328125 -0.25 C 3.953125 0.0703125 3.503906 0.234375 2.984375 0.234375 C 2.390625 0.234375 1.957031 0.0820312 1.6875 -0.21875 C 1.425781 -0.53125 1.296875 -1.003906 1.296875 -1.640625 C 1.296875 -2.566406 1.414062 -4.265625 1.65625 -6.734375 C 1.90625 -9.210938 2.164062 -11.429688 2.4375 -13.390625 L 2.625 -14.53125 L 1.140625 -14.453125 L 1.234375 -15.28125 C 2.066406 -15.28125 2.660156 -15.328125 3.015625 -15.421875 C 3.378906 -15.523438 3.675781 -15.671875 3.90625 -15.859375 L 4.5 -15.859375 Z M 4.265625 -14.359375 "/></g></g></g><g fill="#ffffff" fill-opacity="1"><g transform="translate(376.846762, 471.562508)"><g><path d="M 4.265625 -14.359375 C 4.097656 -13.378906 3.992188 -12.6875 3.953125 -12.28125 C 3.722656 -10.644531 3.503906 -8.742188 3.296875 -6.578125 C 3.097656 -4.421875 3 -2.863281 3 -1.90625 C 3 -1.5625 3.035156 -1.289062 3.109375 -1.09375 C 3.179688 -0.90625 3.332031 -0.8125 3.5625 -0.8125 C 3.832031 -0.8125 4.109375 -0.976562 4.390625 -1.3125 C 4.671875 -1.644531 4.910156 -2.160156 5.109375 -2.859375 L 5.6875 -2.703125 C 5.625 -2.316406 5.476562 -1.894531 5.25 -1.4375 C 5.019531 -0.976562 4.710938 -0.582031 4.328125 -0.25 C 3.953125 0.0703125 3.503906 0.234375 2.984375 0.234375 C 2.390625 0.234375 1.957031 0.0820312 1.6875 -0.21875 C 1.425781 -0.53125 1.296875 -1.003906 1.296875 -1.640625 C 1.296875 -2.566406 1.414062 -4.265625 1.65625 -6.734375 C 1.90625 -9.210938 2.164062 -11.429688 2.4375 -13.390625 L 2.625 -14.53125 L 1.140625 -14.453125 L 1.234375 -15.28125 C 2.066406 -15.28125 2.660156 -15.328125 3.015625 -15.421875 C 3.378906 -15.523438 3.675781 -15.671875 3.90625 -15.859375 L 4.5 -15.859375 Z M 4.265625 -14.359375 "/></g></g></g><g fill="#ffffff" fill-opacity="1"><g transform="translate(382.789782, 471.562508)"><g><path d="M 3.984375 -15.265625 C 4.304688 -15.265625 4.570312 -15.148438 4.78125 -14.921875 C 5 -14.703125 5.109375 -14.414062 5.109375 -14.0625 C 5.109375 -13.71875 4.992188 -13.4375 4.765625 -13.21875 C 4.546875 -13 4.28125 -12.890625 3.96875 -12.890625 C 3.65625 -12.890625 3.390625 -13 3.171875 -13.21875 C 2.960938 -13.4375 2.859375 -13.71875 2.859375 -14.0625 C 2.859375 -14.414062 2.96875 -14.703125 3.1875 -14.921875 C 3.414062 -15.148438 3.679688 -15.265625 3.984375 -15.265625 Z M 2.796875 -10.734375 C 3.367188 -10.734375 3.804688 -10.535156 4.109375 -10.140625 C 4.410156 -9.753906 4.5625 -9.222656 4.5625 -8.546875 C 4.5625 -8.003906 4.441406 -7.046875 4.203125 -5.671875 C 4.054688 -4.785156 3.945312 -4.046875 3.875 -3.453125 C 3.800781 -2.859375 3.765625 -2.273438 3.765625 -1.703125 C 3.765625 -1.109375 3.976562 -0.8125 4.40625 -0.8125 C 4.675781 -0.8125 4.953125 -0.976562 5.234375 -1.3125 C 5.515625 -1.65625 5.75 -2.171875 5.9375 -2.859375 L 6.53125 -2.734375 C 6.363281 -1.972656 6.0625 -1.285156 5.625 -0.671875 C 5.195312 -0.0664062 4.628906 0.234375 3.921875 0.234375 C 2.660156 0.234375 2.03125 -0.425781 2.03125 -1.75 C 2.03125 -2.289062 2.066406 -2.816406 2.140625 -3.328125 C 2.210938 -3.847656 2.316406 -4.492188 2.453125 -5.265625 C 2.597656 -6.117188 2.703125 -6.78125 2.765625 -7.25 C 2.828125 -7.71875 2.859375 -8.210938 2.859375 -8.734375 C 2.859375 -8.972656 2.8125 -9.191406 2.71875 -9.390625 C 2.625 -9.585938 2.472656 -9.6875 2.265625 -9.6875 C 2.003906 -9.6875 1.734375 -9.515625 1.453125 -9.171875 C 1.171875 -8.835938 0.929688 -8.328125 0.734375 -7.640625 L 0.140625 -7.765625 C 0.273438 -8.453125 0.566406 -9.117188 1.015625 -9.765625 C 1.460938 -10.410156 2.054688 -10.734375 2.796875 -10.734375 Z M 2.796875 -10.734375 "/></g></g></g><g fill="#ffffff" fill-opacity="1"><g transform="translate(389.593809, 471.562508)"><g><path d="M 8.3125 -10.734375 C 9.09375 -10.734375 9.671875 -10.476562 10.046875 -9.96875 C 10.421875 -9.46875 10.609375 -8.8125 10.609375 -8 C 10.609375 -7.0625 10.472656 -5.71875 10.203125 -3.96875 C 10.046875 -2.863281 9.96875 -2.132812 9.96875 -1.78125 C 9.96875 -1.476562 10.003906 -1.238281 10.078125 -1.0625 C 10.160156 -0.894531 10.316406 -0.8125 10.546875 -0.8125 C 10.804688 -0.8125 11.078125 -0.976562 11.359375 -1.3125 C 11.640625 -1.644531 11.878906 -2.160156 12.078125 -2.859375 L 12.65625 -2.703125 C 12.59375 -2.316406 12.441406 -1.894531 12.203125 -1.4375 C 11.972656 -0.976562 11.664062 -0.582031 11.28125 -0.25 C 10.894531 0.0703125 10.445312 0.234375 9.9375 0.234375 C 9.300781 0.234375 8.859375 0.0703125 8.609375 -0.25 C 8.359375 -0.582031 8.234375 -1.09375 8.234375 -1.78125 C 8.234375 -2.300781 8.320312 -3.226562 8.5 -4.5625 C 8.757812 -6.269531 8.890625 -7.570312 8.890625 -8.46875 C 8.890625 -8.789062 8.8125 -9.082031 8.65625 -9.34375 C 8.507812 -9.613281 8.253906 -9.75 7.890625 -9.75 C 7.273438 -9.75 6.644531 -9.28125 6 -8.34375 C 5.363281 -7.414062 4.832031 -6.269531 4.40625 -4.90625 C 3.976562 -3.539062 3.765625 -2.273438 3.765625 -1.109375 C 3.765625 -0.847656 3.773438 -0.476562 3.796875 0 L 2.03125 0 C 2.019531 -0.125 2.015625 -0.304688 2.015625 -0.546875 C 2.015625 -0.878906 2.046875 -1.347656 2.109375 -1.953125 C 2.171875 -2.554688 2.265625 -3.347656 2.390625 -4.328125 C 2.390625 -4.410156 2.40625 -4.550781 2.4375 -4.75 C 2.445312 -4.925781 2.46875 -5.113281 2.5 -5.3125 C 2.53125 -5.507812 2.550781 -5.707031 2.5625 -5.90625 C 2.65625 -6.757812 2.722656 -7.378906 2.765625 -7.765625 C 2.804688 -8.160156 2.828125 -8.484375 2.828125 -8.734375 C 2.828125 -9.023438 2.789062 -9.253906 2.71875 -9.421875 C 2.644531 -9.597656 2.492188 -9.6875 2.265625 -9.6875 C 2.003906 -9.6875 1.734375 -9.515625 1.453125 -9.171875 C 1.171875 -8.835938 0.929688 -8.328125 0.734375 -7.640625 L 0.140625 -7.765625 C 0.210938 -8.160156 0.363281 -8.585938 0.59375 -9.046875 C 0.820312 -9.515625 1.128906 -9.910156 1.515625 -10.234375 C 1.898438 -10.566406 2.351562 -10.734375 2.875 -10.734375 C 3.925781 -10.734375 4.453125 -10.007812 4.453125 -8.5625 C 4.453125 -8.15625 4.410156 -7.710938 4.328125 -7.234375 C 4.253906 -6.753906 4.179688 -6.320312 4.109375 -5.9375 L 4.171875 -5.9375 C 4.847656 -7.726562 5.519531 -8.972656 6.1875 -9.671875 C 6.851562 -10.378906 7.5625 -10.734375 8.3125 -10.734375 Z M 8.3125 -10.734375 "/></g></g></g><g fill="#ffffff" fill-opacity="1"><g transform="translate(402.508867, 471.562508)"><g><path d="M 6.9375 -10.734375 C 7.425781 -10.734375 7.910156 -10.703125 8.390625 -10.640625 C 8.867188 -10.578125 9.269531 -10.488281 9.59375 -10.375 C 9.519531 -9.226562 9.335938 -6.929688 9.046875 -3.484375 L 8.78125 -0.296875 C 8.613281 1.691406 8.066406 3.1875 7.140625 4.1875 C 6.210938 5.1875 4.96875 5.6875 3.40625 5.6875 C 3 5.6875 2.554688 5.628906 2.078125 5.515625 C 1.597656 5.410156 1.179688 5.222656 0.828125 4.953125 C 0.484375 4.691406 0.304688 4.347656 0.296875 3.921875 C 0.296875 3.628906 0.390625 3.378906 0.578125 3.171875 C 0.765625 2.960938 1 2.859375 1.28125 2.859375 C 1.550781 2.859375 1.773438 2.941406 1.953125 3.109375 C 2.128906 3.273438 2.21875 3.515625 2.21875 3.828125 C 2.21875 4.003906 2.175781 4.1875 2.09375 4.375 C 2.21875 4.5625 2.421875 4.703125 2.703125 4.796875 C 2.984375 4.898438 3.265625 4.953125 3.546875 4.953125 C 4.546875 4.953125 5.304688 4.613281 5.828125 3.9375 C 6.347656 3.257812 6.695312 2.441406 6.875 1.484375 C 7.0625 0.535156 7.21875 -0.691406 7.34375 -2.203125 C 7.425781 -3.242188 7.503906 -4 7.578125 -4.46875 L 7.515625 -4.46875 C 6.984375 -2.632812 6.394531 -1.390625 5.75 -0.734375 C 5.101562 -0.0859375 4.398438 0.234375 3.640625 0.234375 C 2.691406 0.234375 1.976562 -0.132812 1.5 -0.875 C 1.03125 -1.625 0.796875 -2.613281 0.796875 -3.84375 C 0.796875 -5.09375 1.019531 -6.238281 1.46875 -7.28125 C 1.914062 -8.320312 2.597656 -9.15625 3.515625 -9.78125 C 4.441406 -10.414062 5.582031 -10.734375 6.9375 -10.734375 Z M 6.59375 -9.96875 C 5.644531 -9.96875 4.863281 -9.664062 4.25 -9.0625 C 3.644531 -8.46875 3.210938 -7.734375 2.953125 -6.859375 C 2.691406 -5.984375 2.5625 -5.097656 2.5625 -4.203125 C 2.5625 -3.148438 2.679688 -2.3125 2.921875 -1.6875 C 3.160156 -1.0625 3.546875 -0.75 4.078125 -0.75 C 4.691406 -0.75 5.285156 -1.226562 5.859375 -2.1875 C 6.441406 -3.15625 6.921875 -4.34375 7.296875 -5.75 C 7.679688 -7.15625 7.910156 -8.472656 7.984375 -9.703125 C 7.617188 -9.878906 7.15625 -9.96875 6.59375 -9.96875 Z M 6.59375 -9.96875 "/></g></g></g><g fill="#ffffff" fill-opacity="1"><g transform="translate(413.386911, 471.562508)"><g/></g></g><g fill="#ffffff" fill-opacity="1"><g transform="translate(418.909921, 471.562508)"><g><path d="M 3.984375 -15.265625 C 4.304688 -15.265625 4.570312 -15.148438 4.78125 -14.921875 C 5 -14.703125 5.109375 -14.414062 5.109375 -14.0625 C 5.109375 -13.71875 4.992188 -13.4375 4.765625 -13.21875 C 4.546875 -13 4.28125 -12.890625 3.96875 -12.890625 C 3.65625 -12.890625 3.390625 -13 3.171875 -13.21875 C 2.960938 -13.4375 2.859375 -13.71875 2.859375 -14.0625 C 2.859375 -14.414062 2.96875 -14.703125 3.1875 -14.921875 C 3.414062 -15.148438 3.679688 -15.265625 3.984375 -15.265625 Z M 2.796875 -10.734375 C 3.367188 -10.734375 3.804688 -10.535156 4.109375 -10.140625 C 4.410156 -9.753906 4.5625 -9.222656 4.5625 -8.546875 C 4.5625 -8.003906 4.441406 -7.046875 4.203125 -5.671875 C 4.054688 -4.785156 3.945312 -4.046875 3.875 -3.453125 C 3.800781 -2.859375 3.765625 -2.273438 3.765625 -1.703125 C 3.765625 -1.109375 3.976562 -0.8125 4.40625 -0.8125 C 4.675781 -0.8125 4.953125 -0.976562 5.234375 -1.3125 C 5.515625 -1.65625 5.75 -2.171875 5.9375 -2.859375 L 6.53125 -2.734375 C 6.363281 -1.972656 6.0625 -1.285156 5.625 -0.671875 C 5.195312 -0.0664062 4.628906 0.234375 3.921875 0.234375 C 2.660156 0.234375 2.03125 -0.425781 2.03125 -1.75 C 2.03125 -2.289062 2.066406 -2.816406 2.140625 -3.328125 C 2.210938 -3.847656 2.316406 -4.492188 2.453125 -5.265625 C 2.597656 -6.117188 2.703125 -6.78125 2.765625 -7.25 C 2.828125 -7.71875 2.859375 -8.210938 2.859375 -8.734375 C 2.859375 -8.972656 2.8125 -9.191406 2.71875 -9.390625 C 2.625 -9.585938 2.472656 -9.6875 2.265625 -9.6875 C 2.003906 -9.6875 1.734375 -9.515625 1.453125 -9.171875 C 1.171875 -8.835938 0.929688 -8.328125 0.734375 -7.640625 L 0.140625 -7.765625 C 0.273438 -8.453125 0.566406 -9.117188 1.015625 -9.765625 C 1.460938 -10.410156 2.054688 -10.734375 2.796875 -10.734375 Z M 2.796875 -10.734375 "/></g></g></g><g fill="#ffffff" fill-opacity="1"><g transform="translate(425.713936, 471.562508)"><g><path d="M 8.3125 -10.734375 C 9.09375 -10.734375 9.671875 -10.476562 10.046875 -9.96875 C 10.421875 -9.46875 10.609375 -8.8125 10.609375 -8 C 10.609375 -7.0625 10.472656 -5.71875 10.203125 -3.96875 C 10.046875 -2.863281 9.96875 -2.132812 9.96875 -1.78125 C 9.96875 -1.476562 10.003906 -1.238281 10.078125 -1.0625 C 10.160156 -0.894531 10.316406 -0.8125 10.546875 -0.8125 C 10.804688 -0.8125 11.078125 -0.976562 11.359375 -1.3125 C 11.640625 -1.644531 11.878906 -2.160156 12.078125 -2.859375 L 12.65625 -2.703125 C 12.59375 -2.316406 12.441406 -1.894531 12.203125 -1.4375 C 11.972656 -0.976562 11.664062 -0.582031 11.28125 -0.25 C 10.894531 0.0703125 10.445312 0.234375 9.9375 0.234375 C 9.300781 0.234375 8.859375 0.0703125 8.609375 -0.25 C 8.359375 -0.582031 8.234375 -1.09375 8.234375 -1.78125 C 8.234375 -2.300781 8.320312 -3.226562 8.5 -4.5625 C 8.757812 -6.269531 8.890625 -7.570312 8.890625 -8.46875 C 8.890625 -8.789062 8.8125 -9.082031 8.65625 -9.34375 C 8.507812 -9.613281 8.253906 -9.75 7.890625 -9.75 C 7.273438 -9.75 6.644531 -9.28125 6 -8.34375 C 5.363281 -7.414062 4.832031 -6.269531 4.40625 -4.90625 C 3.976562 -3.539062 3.765625 -2.273438 3.765625 -1.109375 C 3.765625 -0.847656 3.773438 -0.476562 3.796875 0 L 2.03125 0 C 2.019531 -0.125 2.015625 -0.304688 2.015625 -0.546875 C 2.015625 -0.878906 2.046875 -1.347656 2.109375 -1.953125 C 2.171875 -2.554688 2.265625 -3.347656 2.390625 -4.328125 C 2.390625 -4.410156 2.40625 -4.550781 2.4375 -4.75 C 2.445312 -4.925781 2.46875 -5.113281 2.5 -5.3125 C 2.53125 -5.507812 2.550781 -5.707031 2.5625 -5.90625 C 2.65625 -6.757812 2.722656 -7.378906 2.765625 -7.765625 C 2.804688 -8.160156 2.828125 -8.484375 2.828125 -8.734375 C 2.828125 -9.023438 2.789062 -9.253906 2.71875 -9.421875 C 2.644531 -9.597656 2.492188 -9.6875 2.265625 -9.6875 C 2.003906 -9.6875 1.734375 -9.515625 1.453125 -9.171875 C 1.171875 -8.835938 0.929688 -8.328125 0.734375 -7.640625 L 0.140625 -7.765625 C 0.210938 -8.160156 0.363281 -8.585938 0.59375 -9.046875 C 0.820312 -9.515625 1.128906 -9.910156 1.515625 -10.234375 C 1.898438 -10.566406 2.351562 -10.734375 2.875 -10.734375 C 3.925781 -10.734375 4.453125 -10.007812 4.453125 -8.5625 C 4.453125 -8.15625 4.410156 -7.710938 4.328125 -7.234375 C 4.253906 -6.753906 4.179688 -6.320312 4.109375 -5.9375 L 4.171875 -5.9375 C 4.847656 -7.726562 5.519531 -8.972656 6.1875 -9.671875 C 6.851562 -10.378906 7.5625 -10.734375 8.3125 -10.734375 Z M 8.3125 -10.734375 "/></g></g></g><g fill="#ffffff" fill-opacity="1"><g transform="translate(438.629005, 471.562508)"><g/></g></g><g fill="#ffffff" fill-opacity="1"><g transform="translate(444.152015, 471.562508)"><g><path d="M 6.90625 -10.734375 C 7.863281 -10.734375 8.800781 -10.613281 9.71875 -10.375 C 9.101562 -5.8125 8.796875 -3.007812 8.796875 -1.96875 C 8.796875 -1.601562 8.832031 -1.316406 8.90625 -1.109375 C 8.976562 -0.910156 9.140625 -0.8125 9.390625 -0.8125 C 9.648438 -0.8125 9.921875 -0.976562 10.203125 -1.3125 C 10.484375 -1.65625 10.722656 -2.171875 10.921875 -2.859375 L 11.515625 -2.734375 C 11.441406 -2.335938 11.285156 -1.90625 11.046875 -1.4375 C 10.816406 -0.976562 10.507812 -0.582031 10.125 -0.25 C 9.75 0.0703125 9.300781 0.234375 8.78125 0.234375 C 7.738281 0.234375 7.21875 -0.394531 7.21875 -1.65625 C 7.21875 -2.269531 7.347656 -3.207031 7.609375 -4.46875 L 7.53125 -4.46875 C 6.945312 -2.625 6.304688 -1.378906 5.609375 -0.734375 C 4.910156 -0.0859375 4.1875 0.234375 3.4375 0.234375 C 2.625 0.234375 1.976562 -0.0546875 1.5 -0.640625 C 1.019531 -1.234375 0.78125 -2.160156 0.78125 -3.421875 C 0.78125 -4.765625 1.007812 -5.988281 1.46875 -7.09375 C 1.925781 -8.195312 2.617188 -9.078125 3.546875 -9.734375 C 4.472656 -10.398438 5.59375 -10.734375 6.90625 -10.734375 Z M 6.265625 -9.96875 C 5.453125 -9.96875 4.765625 -9.675781 4.203125 -9.09375 C 3.640625 -8.519531 3.222656 -7.757812 2.953125 -6.8125 C 2.679688 -5.863281 2.546875 -4.851562 2.546875 -3.78125 C 2.546875 -1.71875 3 -0.6875 3.90625 -0.6875 C 4.519531 -0.6875 5.132812 -1.171875 5.75 -2.140625 C 6.363281 -3.109375 6.875 -4.300781 7.28125 -5.71875 C 7.6875 -7.144531 7.890625 -8.476562 7.890625 -9.71875 C 7.472656 -9.882812 6.929688 -9.96875 6.265625 -9.96875 Z M 6.265625 -9.96875 "/></g></g></g><g fill="#ffffff" fill-opacity="1"><g transform="translate(455.660056, 471.562508)"><g><path d="M 8.3125 -10.734375 C 9.09375 -10.734375 9.671875 -10.476562 10.046875 -9.96875 C 10.421875 -9.46875 10.609375 -8.8125 10.609375 -8 C 10.609375 -7.0625 10.472656 -5.71875 10.203125 -3.96875 C 10.046875 -2.863281 9.96875 -2.132812 9.96875 -1.78125 C 9.96875 -1.476562 10.003906 -1.238281 10.078125 -1.0625 C 10.160156 -0.894531 10.316406 -0.8125 10.546875 -0.8125 C 10.804688 -0.8125 11.078125 -0.976562 11.359375 -1.3125 C 11.640625 -1.644531 11.878906 -2.160156 12.078125 -2.859375 L 12.65625 -2.703125 C 12.59375 -2.316406 12.441406 -1.894531 12.203125 -1.4375 C 11.972656 -0.976562 11.664062 -0.582031 11.28125 -0.25 C 10.894531 0.0703125 10.445312 0.234375 9.9375 0.234375 C 9.300781 0.234375 8.859375 0.0703125 8.609375 -0.25 C 8.359375 -0.582031 8.234375 -1.09375 8.234375 -1.78125 C 8.234375 -2.300781 8.320312 -3.226562 8.5 -4.5625 C 8.757812 -6.269531 8.890625 -7.570312 8.890625 -8.46875 C 8.890625 -8.789062 8.8125 -9.082031 8.65625 -9.34375 C 8.507812 -9.613281 8.253906 -9.75 7.890625 -9.75 C 7.273438 -9.75 6.644531 -9.28125 6 -8.34375 C 5.363281 -7.414062 4.832031 -6.269531 4.40625 -4.90625 C 3.976562 -3.539062 3.765625 -2.273438 3.765625 -1.109375 C 3.765625 -0.847656 3.773438 -0.476562 3.796875 0 L 2.03125 0 C 2.019531 -0.125 2.015625 -0.304688 2.015625 -0.546875 C 2.015625 -0.878906 2.046875 -1.347656 2.109375 -1.953125 C 2.171875 -2.554688 2.265625 -3.347656 2.390625 -4.328125 C 2.390625 -4.410156 2.40625 -4.550781 2.4375 -4.75 C 2.445312 -4.925781 2.46875 -5.113281 2.5 -5.3125 C 2.53125 -5.507812 2.550781 -5.707031 2.5625 -5.90625 C 2.65625 -6.757812 2.722656 -7.378906 2.765625 -7.765625 C 2.804688 -8.160156 2.828125 -8.484375 2.828125 -8.734375 C 2.828125 -9.023438 2.789062 -9.253906 2.71875 -9.421875 C 2.644531 -9.597656 2.492188 -9.6875 2.265625 -9.6875 C 2.003906 -9.6875 1.734375 -9.515625 1.453125 -9.171875 C 1.171875 -8.835938 0.929688 -8.328125 0.734375 -7.640625 L 0.140625 -7.765625 C 0.210938 -8.160156 0.363281 -8.585938 0.59375 -9.046875 C 0.820312 -9.515625 1.128906 -9.910156 1.515625 -10.234375 C 1.898438 -10.566406 2.351562 -10.734375 2.875 -10.734375 C 3.925781 -10.734375 4.453125 -10.007812 4.453125 -8.5625 C 4.453125 -8.15625 4.410156 -7.710938 4.328125 -7.234375 C 4.253906 -6.753906 4.179688 -6.320312 4.109375 -5.9375 L 4.171875 -5.9375 C 4.847656 -7.726562 5.519531 -8.972656 6.1875 -9.671875 C 6.851562 -10.378906 7.5625 -10.734375 8.3125 -10.734375 Z M 8.3125 -10.734375 "/></g></g></g><g fill="#ffffff" fill-opacity="1"><g transform="translate(468.575125, 471.562508)"><g><path d="M 10.453125 -15.859375 C 10.234375 -14.453125 10.066406 -13.25 9.953125 -12.25 L 9.578125 -8.96875 C 9.367188 -7.101562 9.210938 -5.628906 9.109375 -4.546875 C 9.015625 -3.472656 8.96875 -2.601562 8.96875 -1.9375 C 8.96875 -1.570312 9 -1.289062 9.0625 -1.09375 C 9.132812 -0.90625 9.289062 -0.8125 9.53125 -0.8125 C 9.800781 -0.8125 10.070312 -0.976562 10.34375 -1.3125 C 10.613281 -1.65625 10.847656 -2.171875 11.046875 -2.859375 L 11.65625 -2.734375 C 11.582031 -2.335938 11.429688 -1.90625 11.203125 -1.4375 C 10.972656 -0.976562 10.664062 -0.582031 10.28125 -0.25 C 9.894531 0.0703125 9.441406 0.234375 8.921875 0.234375 C 8.378906 0.234375 7.972656 0.0664062 7.703125 -0.265625 C 7.441406 -0.609375 7.3125 -1.070312 7.3125 -1.65625 C 7.3125 -2.414062 7.414062 -3.320312 7.625 -4.375 L 7.5625 -4.375 C 7.039062 -2.625 6.441406 -1.414062 5.765625 -0.75 C 5.085938 -0.09375 4.378906 0.234375 3.640625 0.234375 C 2.710938 0.234375 2.003906 -0.140625 1.515625 -0.890625 C 1.035156 -1.640625 0.796875 -2.597656 0.796875 -3.765625 C 0.796875 -5.148438 1.023438 -6.363281 1.484375 -7.40625 C 1.953125 -8.457031 2.644531 -9.273438 3.5625 -9.859375 C 4.476562 -10.441406 5.59375 -10.734375 6.90625 -10.734375 C 7.351562 -10.734375 7.742188 -10.703125 8.078125 -10.640625 L 8.40625 -13.25 C 8.46875 -13.769531 8.539062 -14.195312 8.625 -14.53125 L 7.09375 -14.453125 L 7.1875 -15.28125 C 8.019531 -15.28125 8.617188 -15.328125 8.984375 -15.421875 C 9.347656 -15.523438 9.632812 -15.671875 9.84375 -15.859375 Z M 6.546875 -9.96875 C 5.628906 -9.96875 4.875 -9.675781 4.28125 -9.09375 C 3.695312 -8.507812 3.269531 -7.769531 3 -6.875 C 2.738281 -5.988281 2.609375 -5.066406 2.609375 -4.109375 C 2.609375 -3.078125 2.722656 -2.257812 2.953125 -1.65625 C 3.179688 -1.050781 3.554688 -0.75 4.078125 -0.75 C 4.492188 -0.75 4.925781 -1 5.375 -1.5 C 5.820312 -2 6.226562 -2.65625 6.59375 -3.46875 C 6.957031 -4.28125 7.242188 -5.144531 7.453125 -6.0625 C 7.617188 -6.832031 7.796875 -8.066406 7.984375 -9.765625 C 7.597656 -9.898438 7.117188 -9.96875 6.546875 -9.96875 Z M 6.546875 -9.96875 "/></g></g></g><g fill="#ffffff" fill-opacity="1"><g transform="translate(480.230177, 471.562508)"><g/></g></g><g fill="#ffffff" fill-opacity="1"><g transform="translate(485.75321, 471.562508)"><g><path d="M 6 -10.734375 C 6.757812 -10.734375 7.441406 -10.550781 8.046875 -10.1875 C 8.660156 -9.820312 9.140625 -9.289062 9.484375 -8.59375 C 9.828125 -7.90625 10 -7.082031 10 -6.125 C 10 -4.976562 9.789062 -3.921875 9.375 -2.953125 C 8.957031 -1.992188 8.359375 -1.222656 7.578125 -0.640625 C 6.804688 -0.0546875 5.894531 0.234375 4.84375 0.234375 C 3.519531 0.234375 2.515625 -0.203125 1.828125 -1.078125 C 1.148438 -1.953125 0.8125 -3.082031 0.8125 -4.46875 C 0.8125 -5.613281 1.019531 -6.660156 1.4375 -7.609375 C 1.863281 -8.566406 2.46875 -9.328125 3.25 -9.890625 C 4.039062 -10.453125 4.957031 -10.734375 6 -10.734375 Z M 5.671875 -9.953125 C 5.054688 -9.953125 4.519531 -9.726562 4.0625 -9.28125 C 3.601562 -8.84375 3.253906 -8.242188 3.015625 -7.484375 C 2.785156 -6.722656 2.671875 -5.875 2.671875 -4.9375 C 2.671875 -3.769531 2.859375 -2.75 3.234375 -1.875 C 3.609375 -1 4.222656 -0.5625 5.078125 -0.5625 C 5.796875 -0.5625 6.378906 -0.832031 6.828125 -1.375 C 7.285156 -1.925781 7.617188 -2.597656 7.828125 -3.390625 C 8.035156 -4.191406 8.140625 -4.972656 8.140625 -5.734375 C 8.140625 -6.910156 7.953125 -7.90625 7.578125 -8.71875 C 7.210938 -9.539062 6.578125 -9.953125 5.671875 -9.953125 Z M 5.671875 -9.953125 "/></g></g></g><g fill="#ffffff" fill-opacity="1"><g transform="translate(496.694265, 471.562508)"><g><path d="M 2.796875 -10.734375 C 3.359375 -10.734375 3.78125 -10.554688 4.0625 -10.203125 C 4.351562 -9.859375 4.5 -9.351562 4.5 -8.6875 C 4.5 -8.1875 4.382812 -7.140625 4.15625 -5.546875 C 4.144531 -5.421875 4.082031 -4.945312 3.96875 -4.125 C 3.851562 -3.300781 3.796875 -2.617188 3.796875 -2.078125 C 3.796875 -1.742188 3.867188 -1.4375 4.015625 -1.15625 C 4.160156 -0.882812 4.414062 -0.75 4.78125 -0.75 C 5.40625 -0.75 6.023438 -1.210938 6.640625 -2.140625 C 7.253906 -3.078125 7.757812 -4.222656 8.15625 -5.578125 C 8.550781 -6.941406 8.75 -8.210938 8.75 -9.390625 C 8.75 -9.648438 8.738281 -10.019531 8.71875 -10.5 L 10.484375 -10.5 C 10.492188 -10.375 10.5 -10.191406 10.5 -9.953125 C 10.5 -9.617188 10.460938 -9.097656 10.390625 -8.390625 C 10.328125 -7.691406 10.222656 -6.785156 10.078125 -5.671875 L 9.875 -3.921875 C 9.851562 -3.742188 9.816406 -3.410156 9.765625 -2.921875 C 9.710938 -2.429688 9.6875 -2.046875 9.6875 -1.765625 C 9.6875 -1.148438 9.875 -0.84375 10.25 -0.84375 C 10.507812 -0.84375 10.78125 -1.003906 11.0625 -1.328125 C 11.34375 -1.660156 11.582031 -2.171875 11.78125 -2.859375 L 12.375 -2.734375 C 12.300781 -2.335938 12.148438 -1.90625 11.921875 -1.4375 C 11.691406 -0.976562 11.382812 -0.582031 11 -0.25 C 10.613281 0.0703125 10.160156 0.234375 9.640625 0.234375 C 9.085938 0.234375 8.675781 0.0664062 8.40625 -0.265625 C 8.144531 -0.609375 8.015625 -1.070312 8.015625 -1.65625 C 8.015625 -2.269531 8.144531 -3.207031 8.40625 -4.46875 L 8.34375 -4.46875 C 7.664062 -2.664062 7.019531 -1.429688 6.40625 -0.765625 C 5.789062 -0.0976562 5.113281 0.234375 4.375 0.234375 C 3.582031 0.234375 3 -0.0195312 2.625 -0.53125 C 2.257812 -1.039062 2.078125 -1.695312 2.078125 -2.5 C 2.078125 -3.101562 2.109375 -3.710938 2.171875 -4.328125 C 2.242188 -4.941406 2.351562 -5.679688 2.5 -6.546875 C 2.53125 -6.703125 2.578125 -7.03125 2.640625 -7.53125 C 2.710938 -8.03125 2.75 -8.414062 2.75 -8.6875 C 2.75 -9.007812 2.707031 -9.253906 2.625 -9.421875 C 2.550781 -9.597656 2.40625 -9.6875 2.1875 -9.6875 C 1.9375 -9.6875 1.675781 -9.519531 1.40625 -9.1875 C 1.144531 -8.851562 0.914062 -8.335938 0.71875 -7.640625 L 0.125 -7.765625 C 0.25 -8.453125 0.539062 -9.117188 1 -9.765625 C 1.457031 -10.410156 2.054688 -10.734375 2.796875 -10.734375 Z M 2.796875 -10.734375 "/></g></g></g><g fill="#ffffff" fill-opacity="1"><g transform="translate(509.147313, 471.562508)"><g><path d="M 4.171875 -10.5 L 7.515625 -10.5 L 7.453125 -9.703125 L 4.09375 -9.65625 L 3.953125 -8.3125 C 3.640625 -5.65625 3.484375 -3.773438 3.484375 -2.671875 C 3.484375 -2.117188 3.546875 -1.675781 3.671875 -1.34375 C 3.796875 -1.007812 4.0625 -0.84375 4.46875 -0.84375 C 5.195312 -0.84375 5.859375 -1.332031 6.453125 -2.3125 L 7 -1.953125 C 6.5625 -1.210938 6.109375 -0.660156 5.640625 -0.296875 C 5.171875 0.0546875 4.613281 0.234375 3.96875 0.234375 C 3.195312 0.234375 2.640625 0.00390625 2.296875 -0.453125 C 1.953125 -0.921875 1.78125 -1.519531 1.78125 -2.25 C 1.78125 -3.0625 1.828125 -4.128906 1.921875 -5.453125 C 2.023438 -6.773438 2.160156 -8.171875 2.328125 -9.640625 L 0.46875 -9.625 L 0.53125 -10.5 C 1.363281 -10.5 2.039062 -10.742188 2.5625 -11.234375 C 3.082031 -11.734375 3.484375 -12.476562 3.765625 -13.46875 L 4.5625 -13.46875 Z M 4.171875 -10.5 "/></g></g></g><g fill="#ffffff" fill-opacity="1"><g transform="translate(516.791348, 471.562508)"><g/></g></g><g fill="#ffffff" fill-opacity="1"><g transform="translate(522.31438, 471.562508)"><g><path d="M 6 -10.734375 C 6.757812 -10.734375 7.441406 -10.550781 8.046875 -10.1875 C 8.660156 -9.820312 9.140625 -9.289062 9.484375 -8.59375 C 9.828125 -7.90625 10 -7.082031 10 -6.125 C 10 -4.976562 9.789062 -3.921875 9.375 -2.953125 C 8.957031 -1.992188 8.359375 -1.222656 7.578125 -0.640625 C 6.804688 -0.0546875 5.894531 0.234375 4.84375 0.234375 C 3.519531 0.234375 2.515625 -0.203125 1.828125 -1.078125 C 1.148438 -1.953125 0.8125 -3.082031 0.8125 -4.46875 C 0.8125 -5.613281 1.019531 -6.660156 1.4375 -7.609375 C 1.863281 -8.566406 2.46875 -9.328125 3.25 -9.890625 C 4.039062 -10.453125 4.957031 -10.734375 6 -10.734375 Z M 5.671875 -9.953125 C 5.054688 -9.953125 4.519531 -9.726562 4.0625 -9.28125 C 3.601562 -8.84375 3.253906 -8.242188 3.015625 -7.484375 C 2.785156 -6.722656 2.671875 -5.875 2.671875 -4.9375 C 2.671875 -3.769531 2.859375 -2.75 3.234375 -1.875 C 3.609375 -1 4.222656 -0.5625 5.078125 -0.5625 C 5.796875 -0.5625 6.378906 -0.832031 6.828125 -1.375 C 7.285156 -1.925781 7.617188 -2.597656 7.828125 -3.390625 C 8.035156 -4.191406 8.140625 -4.972656 8.140625 -5.734375 C 8.140625 -6.910156 7.953125 -7.90625 7.578125 -8.71875 C 7.210938 -9.539062 6.578125 -9.953125 5.671875 -9.953125 Z M 5.671875 -9.953125 "/></g></g></g><g fill="#ffffff" fill-opacity="1"><g transform="translate(533.255435, 471.562508)"><g><path d="M 6.71875 -15.953125 C 7.207031 -15.953125 7.582031 -15.859375 7.84375 -15.671875 C 8.113281 -15.484375 8.25 -15.21875 8.25 -14.875 C 8.25 -14.675781 8.179688 -14.484375 8.046875 -14.296875 C 7.921875 -14.117188 7.722656 -14.03125 7.453125 -14.03125 C 7.171875 -14.03125 6.945312 -14.125 6.78125 -14.3125 C 6.625 -14.507812 6.554688 -14.765625 6.578125 -15.078125 C 6.492188 -15.128906 6.332031 -15.15625 6.09375 -15.15625 C 5.4375 -15.15625 4.960938 -14.765625 4.671875 -13.984375 C 4.378906 -13.203125 4.171875 -12.039062 4.046875 -10.5 L 7.03125 -10.5 L 6.96875 -9.6875 L 3.984375 -9.640625 L 3.921875 -8.46875 C 3.828125 -6.820312 3.753906 -5.648438 3.703125 -4.953125 L 3.5625 -3.46875 C 3.394531 -1.40625 3.195312 0.222656 2.96875 1.421875 C 2.75 2.617188 2.332031 3.628906 1.71875 4.453125 C 1.101562 5.273438 0.203125 5.6875 -0.984375 5.6875 C -1.515625 5.6875 -1.921875 5.59375 -2.203125 5.40625 C -2.484375 5.226562 -2.625 4.957031 -2.625 4.59375 C -2.625 4.40625 -2.550781 4.210938 -2.40625 4.015625 C -2.269531 3.828125 -2.070312 3.734375 -1.8125 3.734375 C -1.539062 3.734375 -1.328125 3.820312 -1.171875 4 C -1.015625 4.175781 -0.9375 4.410156 -0.9375 4.703125 C -0.789062 4.816406 -0.59375 4.875 -0.34375 4.875 C 0.164062 4.875 0.550781 4.597656 0.8125 4.046875 C 1.082031 3.492188 1.269531 2.773438 1.375 1.890625 C 1.488281 1.003906 1.613281 -0.300781 1.75 -2.03125 C 1.832031 -3.4375 1.90625 -4.472656 1.96875 -5.140625 L 2.09375 -6.65625 C 2.164062 -7.707031 2.253906 -8.695312 2.359375 -9.625 L 0.5 -9.59375 L 0.609375 -10.5 L 2.453125 -10.5 C 2.703125 -12.238281 3.140625 -13.582031 3.765625 -14.53125 C 4.398438 -15.476562 5.382812 -15.953125 6.71875 -15.953125 Z M 6.71875 -15.953125 "/></g></g></g><g fill="#ffffff" fill-opacity="1"><g transform="translate(540.080462, 471.562508)"><g/></g></g><g fill="#ffffff" fill-opacity="1"><g transform="translate(545.603472, 471.562508)"><g><path d="M 4.265625 -14.359375 C 4.097656 -13.378906 3.992188 -12.6875 3.953125 -12.28125 C 3.722656 -10.644531 3.503906 -8.742188 3.296875 -6.578125 C 3.097656 -4.421875 3 -2.863281 3 -1.90625 C 3 -1.5625 3.035156 -1.289062 3.109375 -1.09375 C 3.179688 -0.90625 3.332031 -0.8125 3.5625 -0.8125 C 3.832031 -0.8125 4.109375 -0.976562 4.390625 -1.3125 C 4.671875 -1.644531 4.910156 -2.160156 5.109375 -2.859375 L 5.6875 -2.703125 C 5.625 -2.316406 5.476562 -1.894531 5.25 -1.4375 C 5.019531 -0.976562 4.710938 -0.582031 4.328125 -0.25 C 3.953125 0.0703125 3.503906 0.234375 2.984375 0.234375 C 2.390625 0.234375 1.957031 0.0820312 1.6875 -0.21875 C 1.425781 -0.53125 1.296875 -1.003906 1.296875 -1.640625 C 1.296875 -2.566406 1.414062 -4.265625 1.65625 -6.734375 C 1.90625 -9.210938 2.164062 -11.429688 2.4375 -13.390625 L 2.625 -14.53125 L 1.140625 -14.453125 L 1.234375 -15.28125 C 2.066406 -15.28125 2.660156 -15.328125 3.015625 -15.421875 C 3.378906 -15.523438 3.675781 -15.671875 3.90625 -15.859375 L 4.5 -15.859375 Z M 4.265625 -14.359375 "/></g></g></g><g fill="#ffffff" fill-opacity="1"><g transform="translate(551.54648, 471.562508)"><g><path d="M 6 -10.734375 C 6.757812 -10.734375 7.441406 -10.550781 8.046875 -10.1875 C 8.660156 -9.820312 9.140625 -9.289062 9.484375 -8.59375 C 9.828125 -7.90625 10 -7.082031 10 -6.125 C 10 -4.976562 9.789062 -3.921875 9.375 -2.953125 C 8.957031 -1.992188 8.359375 -1.222656 7.578125 -0.640625 C 6.804688 -0.0546875 5.894531 0.234375 4.84375 0.234375 C 3.519531 0.234375 2.515625 -0.203125 1.828125 -1.078125 C 1.148438 -1.953125 0.8125 -3.082031 0.8125 -4.46875 C 0.8125 -5.613281 1.019531 -6.660156 1.4375 -7.609375 C 1.863281 -8.566406 2.46875 -9.328125 3.25 -9.890625 C 4.039062 -10.453125 4.957031 -10.734375 6 -10.734375 Z M 5.671875 -9.953125 C 5.054688 -9.953125 4.519531 -9.726562 4.0625 -9.28125 C 3.601562 -8.84375 3.253906 -8.242188 3.015625 -7.484375 C 2.785156 -6.722656 2.671875 -5.875 2.671875 -4.9375 C 2.671875 -3.769531 2.859375 -2.75 3.234375 -1.875 C 3.609375 -1 4.222656 -0.5625 5.078125 -0.5625 C 5.796875 -0.5625 6.378906 -0.832031 6.828125 -1.375 C 7.285156 -1.925781 7.617188 -2.597656 7.828125 -3.390625 C 8.035156 -4.191406 8.140625 -4.972656 8.140625 -5.734375 C 8.140625 -6.910156 7.953125 -7.90625 7.578125 -8.71875 C 7.210938 -9.539062 6.578125 -9.953125 5.671875 -9.953125 Z M 5.671875 -9.953125 "/></g></g></g><g fill="#ffffff" fill-opacity="1"><g transform="translate(562.487535, 471.562508)"><g><path d="M 7.625 -10.734375 C 8.445312 -10.734375 9.078125 -10.382812 9.515625 -9.6875 C 9.960938 -9 10.1875 -8.125 10.1875 -7.0625 C 10.1875 -6.132812 10.007812 -5.1875 9.65625 -4.21875 C 9.363281 -3.445312 8.957031 -2.722656 8.4375 -2.046875 C 7.925781 -1.367188 7.335938 -0.816406 6.671875 -0.390625 C 6.003906 0.0234375 5.320312 0.234375 4.625 0.234375 C 3.78125 0.234375 3.175781 -0.046875 2.8125 -0.609375 C 2.445312 -1.171875 2.265625 -1.890625 2.265625 -2.765625 C 2.265625 -3.523438 2.300781 -4.320312 2.375 -5.15625 C 2.457031 -6 2.503906 -6.5 2.515625 -6.65625 C 2.628906 -7.582031 2.6875 -8.269531 2.6875 -8.71875 C 2.6875 -9.007812 2.644531 -9.238281 2.5625 -9.40625 C 2.476562 -9.570312 2.320312 -9.65625 2.09375 -9.65625 C 1.84375 -9.65625 1.585938 -9.488281 1.328125 -9.15625 C 1.066406 -8.820312 0.847656 -8.304688 0.671875 -7.609375 L 0.078125 -7.75 C 0.148438 -8.15625 0.289062 -8.582031 0.5 -9.03125 C 0.707031 -9.488281 1.003906 -9.882812 1.390625 -10.21875 C 1.773438 -10.5625 2.234375 -10.734375 2.765625 -10.734375 C 3.316406 -10.734375 3.734375 -10.546875 4.015625 -10.171875 C 4.296875 -9.804688 4.4375 -9.28125 4.4375 -8.59375 C 4.4375 -7.988281 4.359375 -6.75 4.203125 -4.875 C 4.085938 -3.445312 4.03125 -2.578125 4.03125 -2.265625 C 4.03125 -1.859375 4.09375 -1.53125 4.21875 -1.28125 C 4.34375 -1.03125 4.601562 -0.90625 5 -0.90625 C 5.457031 -0.90625 5.945312 -1.078125 6.46875 -1.421875 C 7 -1.773438 7.476562 -2.242188 7.90625 -2.828125 C 8.332031 -3.421875 8.648438 -4.046875 8.859375 -4.703125 C 8.941406 -4.953125 9.015625 -5.273438 9.078125 -5.671875 C 9.140625 -6.078125 9.171875 -6.484375 9.171875 -6.890625 C 9.171875 -7.472656 9.085938 -7.984375 8.921875 -8.421875 C 8.765625 -8.867188 8.503906 -9.171875 8.140625 -9.328125 C 7.992188 -8.972656 7.71875 -8.796875 7.3125 -8.796875 C 7.082031 -8.796875 6.878906 -8.867188 6.703125 -9.015625 C 6.535156 -9.160156 6.441406 -9.382812 6.421875 -9.6875 C 6.421875 -9.945312 6.519531 -10.1875 6.71875 -10.40625 C 6.914062 -10.625 7.21875 -10.734375 7.625 -10.734375 Z M 7.625 -10.734375 "/></g></g></g><g fill="#ffffff" fill-opacity="1"><g transform="translate(573.533578, 471.562508)"><g><path d="M 5.921875 -10.734375 C 6.765625 -10.734375 7.460938 -10.535156 8.015625 -10.140625 C 8.578125 -9.753906 8.859375 -9.144531 8.859375 -8.3125 C 8.859375 -7.28125 8.234375 -6.476562 6.984375 -5.90625 C 5.742188 -5.332031 4.304688 -4.953125 2.671875 -4.765625 C 2.671875 -3.453125 2.863281 -2.460938 3.25 -1.796875 C 3.644531 -1.140625 4.25 -0.8125 5.0625 -0.8125 C 5.707031 -0.8125 6.328125 -1.023438 6.921875 -1.453125 C 7.523438 -1.878906 8.050781 -2.515625 8.5 -3.359375 L 9.203125 -2.96875 C 8.609375 -1.851562 7.945312 -1.039062 7.21875 -0.53125 C 6.488281 -0.0195312 5.648438 0.234375 4.703125 0.234375 C 3.410156 0.234375 2.4375 -0.164062 1.78125 -0.96875 C 1.132812 -1.78125 0.8125 -2.894531 0.8125 -4.3125 C 0.8125 -5.4375 1.003906 -6.484375 1.390625 -7.453125 C 1.773438 -8.429688 2.351562 -9.222656 3.125 -9.828125 C 3.894531 -10.429688 4.828125 -10.734375 5.921875 -10.734375 Z M 5.625 -10.015625 C 4.726562 -10.015625 4.035156 -9.578125 3.546875 -8.703125 C 3.054688 -7.835938 2.769531 -6.773438 2.6875 -5.515625 C 3.90625 -5.691406 4.945312 -6.03125 5.8125 -6.53125 C 6.6875 -7.03125 7.125 -7.660156 7.125 -8.421875 C 7.125 -8.878906 6.992188 -9.257812 6.734375 -9.5625 C 6.472656 -9.863281 6.101562 -10.015625 5.625 -10.015625 Z M 5.625 -10.015625 "/></g></g></g><g fill="#ffffff" fill-opacity="1"><g transform="translate(583.550614, 471.562508)"><g><path d="M 2.203125 -2.3125 C 2.523438 -2.3125 2.785156 -2.191406 2.984375 -1.953125 C 3.191406 -1.710938 3.296875 -1.421875 3.296875 -1.078125 C 3.296875 -0.679688 3.171875 -0.34375 2.921875 -0.0625 C 2.671875 0.207031 2.375 0.34375 2.03125 0.34375 C 1.707031 0.34375 1.4375 0.21875 1.21875 -0.03125 C 1.007812 -0.28125 0.90625 -0.582031 0.90625 -0.9375 C 0.90625 -1.320312 1.035156 -1.644531 1.296875 -1.90625 C 1.566406 -2.175781 1.867188 -2.3125 2.203125 -2.3125 Z M 2.203125 -2.3125 "/></g></g></g><g fill="#ffffff" fill-opacity="1"><g transform="translate(170.056665, 342.187503)"><g><path d="M 1.59375 -10.5 L 5.53125 -10.5 C 6.832031 -10.5 7.835938 -10.191406 8.546875 -9.578125 C 9.265625 -8.960938 9.625 -8.09375 9.625 -6.96875 C 9.625 -5.8125 9.265625 -4.910156 8.546875 -4.265625 C 7.835938 -3.628906 6.832031 -3.3125 5.53125 -3.3125 L 2.796875 -3.3125 L 2.796875 0 L 1.59375 0 Z M 2.796875 -9.34375 L 2.796875 -4.46875 L 5.484375 -4.46875 C 6.453125 -4.46875 7.191406 -4.675781 7.703125 -5.09375 C 8.210938 -5.519531 8.46875 -6.132812 8.46875 -6.9375 C 8.46875 -7.726562 8.210938 -8.328125 7.703125 -8.734375 C 7.191406 -9.140625 6.453125 -9.34375 5.484375 -9.34375 Z M 2.796875 -9.34375 "/></g></g></g><g fill="#ffffff" fill-opacity="1"><g transform="translate(181.216657, 342.187503)"><g><path d="M 10.3125 0 L 9.125 0 L 9.125 -4.625 L 2.796875 -4.625 L 2.796875 0 L 1.59375 0 L 1.59375 -10.5 L 2.796875 -10.5 L 2.796875 -5.765625 L 9.125 -5.765625 L 9.125 -10.5 L 10.3125 -10.5 Z M 10.3125 0 "/></g></g></g><g fill="#ffffff" fill-opacity="1"><g transform="translate(194.251649, 342.187503)"><g><path d="M 2.796875 0 L 1.59375 0 L 1.59375 -10.5 L 2.796875 -10.5 Z M 2.796875 0 "/></g></g></g><g fill="#ffffff" fill-opacity="1"><g transform="translate(199.756646, 342.187503)"><g><path d="M 2.796875 -1.140625 L 7.390625 -1.140625 L 7.390625 0 L 1.59375 0 L 1.59375 -10.5 L 2.796875 -10.5 Z M 2.796875 -1.140625 "/></g></g></g><g fill="#ffffff" fill-opacity="1"><g transform="translate(208.636643, 342.187503)"><g><path d="M 2.796875 0 L 1.59375 0 L 1.59375 -10.5 L 2.796875 -10.5 Z M 2.796875 0 "/></g></g></g><g fill="#ffffff" fill-opacity="1"><g transform="translate(214.14164, 342.187503)"><g><path d="M 1.59375 -10.5 L 5.53125 -10.5 C 6.832031 -10.5 7.835938 -10.191406 8.546875 -9.578125 C 9.265625 -8.960938 9.625 -8.09375 9.625 -6.96875 C 9.625 -5.8125 9.265625 -4.910156 8.546875 -4.265625 C 7.835938 -3.628906 6.832031 -3.3125 5.53125 -3.3125 L 2.796875 -3.3125 L 2.796875 0 L 1.59375 0 Z M 2.796875 -9.34375 L 2.796875 -4.46875 L 5.484375 -4.46875 C 6.453125 -4.46875 7.191406 -4.675781 7.703125 -5.09375 C 8.210938 -5.519531 8.46875 -6.132812 8.46875 -6.9375 C 8.46875 -7.726562 8.210938 -8.328125 7.703125 -8.734375 C 7.191406 -9.140625 6.453125 -9.34375 5.484375 -9.34375 Z M 2.796875 -9.34375 "/></g></g></g><g fill="#ffffff" fill-opacity="1"><g transform="translate(225.301631, 342.187503)"><g/></g></g><g fill="#ffffff" fill-opacity="1"><g transform="translate(230.536628, 342.187503)"><g><path d="M 5.59375 0 L 4.34375 0 L 0.09375 -10.5 L 1.375 -10.5 L 5 -1.390625 L 8.625 -10.5 L 9.890625 -10.5 Z M 5.59375 0 "/></g></g></g><g fill="#ffffff" fill-opacity="1"><g transform="translate(241.636618, 342.187503)"><g><path d="M 8.234375 -2.65625 L 2.5 -2.65625 L 1.328125 0 L 0.0625 0 L 4.765625 -10.5 L 6.015625 -10.5 L 10.703125 0 L 9.40625 0 Z M 7.71875 -3.8125 L 5.359375 -9.140625 L 3.015625 -3.8125 Z M 7.71875 -3.8125 "/></g></g></g><g fill="#ffffff" fill-opacity="1"><g transform="translate(253.531606, 342.187503)"><g><path d="M 4.703125 -10.546875 C 5.953125 -10.546875 7.066406 -10.21875 8.046875 -9.5625 L 7.53125 -8.4375 C 6.644531 -9.03125 5.679688 -9.328125 4.640625 -9.328125 C 3.953125 -9.328125 3.40625 -9.203125 3 -8.953125 C 2.601562 -8.710938 2.40625 -8.375 2.40625 -7.9375 C 2.40625 -7.519531 2.546875 -7.171875 2.828125 -6.890625 C 3.117188 -6.609375 3.484375 -6.398438 3.921875 -6.265625 C 4.367188 -6.128906 4.847656 -5.972656 5.359375 -5.796875 C 5.867188 -5.617188 6.335938 -5.4375 6.765625 -5.25 C 7.203125 -5.0625 7.566406 -4.757812 7.859375 -4.34375 C 8.148438 -3.925781 8.296875 -3.421875 8.296875 -2.828125 C 8.296875 -1.960938 7.941406 -1.265625 7.234375 -0.734375 C 6.535156 -0.210938 5.625 0.046875 4.5 0.046875 C 3.75 0.046875 3.019531 -0.0976562 2.3125 -0.390625 C 1.601562 -0.679688 0.992188 -1.070312 0.484375 -1.5625 L 1.015625 -2.640625 C 1.492188 -2.171875 2.046875 -1.804688 2.671875 -1.546875 C 3.296875 -1.285156 3.910156 -1.15625 4.515625 -1.15625 C 5.273438 -1.15625 5.875 -1.300781 6.3125 -1.59375 C 6.75 -1.882812 6.96875 -2.28125 6.96875 -2.78125 C 6.96875 -3.144531 6.859375 -3.457031 6.640625 -3.71875 C 6.429688 -3.976562 6.15625 -4.179688 5.8125 -4.328125 C 5.46875 -4.472656 5.082031 -4.609375 4.65625 -4.734375 C 4.238281 -4.859375 3.820312 -4.992188 3.40625 -5.140625 C 2.988281 -5.285156 2.601562 -5.457031 2.25 -5.65625 C 1.894531 -5.863281 1.609375 -6.148438 1.390625 -6.515625 C 1.179688 -6.878906 1.078125 -7.316406 1.078125 -7.828125 C 1.078125 -8.648438 1.410156 -9.304688 2.078125 -9.796875 C 2.742188 -10.296875 3.617188 -10.546875 4.703125 -10.546875 Z M 4.703125 -10.546875 "/></g></g></g><g fill="#ffffff" fill-opacity="1"><g transform="translate(263.821595, 342.187503)"><g><path d="M 11.6875 0.109375 L 12.203125 1 C 11.378906 1.769531 10.488281 2.15625 9.53125 2.15625 C 8.332031 2.15625 7.226562 1.457031 6.21875 0.0625 L 6.109375 0.0625 C 4.566406 0.0625 3.257812 -0.453125 2.1875 -1.484375 C 1.125 -2.515625 0.59375 -3.769531 0.59375 -5.25 C 0.59375 -6.726562 1.125 -7.976562 2.1875 -9 C 3.257812 -10.019531 4.566406 -10.53125 6.109375 -10.53125 C 7.640625 -10.53125 8.9375 -10.019531 10 -9 C 11.0625 -7.976562 11.59375 -6.726562 11.59375 -5.25 C 11.59375 -4.019531 11.210938 -2.929688 10.453125 -1.984375 C 9.691406 -1.035156 8.71875 -0.414062 7.53125 -0.125 C 8.257812 0.65625 8.96875 1.046875 9.65625 1.046875 C 10.269531 1.046875 10.945312 0.734375 11.6875 0.109375 Z M 3.0625 -8.171875 C 2.226562 -7.367188 1.8125 -6.394531 1.8125 -5.25 C 1.8125 -4.101562 2.226562 -3.125 3.0625 -2.3125 C 3.90625 -1.5 4.921875 -1.09375 6.109375 -1.09375 C 7.273438 -1.09375 8.273438 -1.5 9.109375 -2.3125 C 9.941406 -3.125 10.359375 -4.101562 10.359375 -5.25 C 10.359375 -6.394531 9.941406 -7.367188 9.109375 -8.171875 C 8.273438 -8.984375 7.273438 -9.390625 6.109375 -9.390625 C 4.921875 -9.390625 3.90625 -8.984375 3.0625 -8.171875 Z M 3.0625 -8.171875 "/></g></g></g><g fill="#ffffff" fill-opacity="1"><g transform="translate(277.396588, 342.187503)"><g><path d="M 10.171875 -10.5 L 10.171875 -4.3125 C 10.171875 -2.945312 9.78125 -1.875 9 -1.09375 C 8.21875 -0.320312 7.144531 0.0625 5.78125 0.0625 C 4.394531 0.0625 3.304688 -0.320312 2.515625 -1.09375 C 1.734375 -1.875 1.34375 -2.945312 1.34375 -4.3125 L 1.34375 -10.5 L 2.546875 -10.5 L 2.546875 -4.3125 C 2.546875 -3.3125 2.832031 -2.523438 3.40625 -1.953125 C 3.988281 -1.378906 4.78125 -1.09375 5.78125 -1.09375 C 6.78125 -1.09375 7.5625 -1.375 8.125 -1.9375 C 8.6875 -2.507812 8.96875 -3.300781 8.96875 -4.3125 L 8.96875 -10.5 Z M 10.171875 -10.5 "/></g></g></g><g fill="#ffffff" fill-opacity="1"><g transform="translate(290.041576, 342.187503)"><g><path d="M 8.71875 -9.34375 L 2.796875 -9.34375 L 2.796875 -5.890625 L 8.078125 -5.890625 L 8.078125 -4.734375 L 2.796875 -4.734375 L 2.796875 -1.140625 L 8.90625 -1.140625 L 8.90625 0 L 1.59375 0 L 1.59375 -10.5 L 8.71875 -10.5 Z M 8.71875 -9.34375 "/></g></g></g><g fill="#ffffff" fill-opacity="1"><g transform="translate(300.931567, 342.187503)"><g><path d="M 9.1875 -9.546875 L 2.21875 -1.140625 L 9.25 -1.140625 L 9.234375 0 L 0.640625 0 L 0.640625 -0.953125 L 7.609375 -9.34375 L 0.84375 -9.34375 L 0.84375 -10.5 L 9.1875 -10.5 Z M 9.1875 -9.546875 "/></g></g></g><g fill="#ffffff" fill-opacity="1"><g transform="translate(435.268217, 342.187503)"><g><path d="M 1.59375 -10.5 L 5.828125 -10.5 C 7.359375 -10.5 8.640625 -9.992188 9.671875 -8.984375 C 10.710938 -7.984375 11.234375 -6.738281 11.234375 -5.25 C 11.234375 -3.757812 10.710938 -2.507812 9.671875 -1.5 C 8.628906 -0.5 7.335938 0 5.796875 0 L 1.59375 0 Z M 2.796875 -9.34375 L 2.796875 -1.140625 L 5.84375 -1.140625 C 7.03125 -1.140625 8.019531 -1.53125 8.8125 -2.3125 C 9.613281 -3.09375 10.015625 -4.066406 10.015625 -5.234375 C 10.015625 -6.398438 9.609375 -7.375 8.796875 -8.15625 C 7.984375 -8.945312 6.988281 -9.34375 5.8125 -9.34375 Z M 2.796875 -9.34375 "/></g></g></g><g fill="#ffffff" fill-opacity="1"><g transform="translate(448.228204, 342.187503)"><g><path d="M 8.234375 -2.65625 L 2.5 -2.65625 L 1.328125 0 L 0.0625 0 L 4.765625 -10.5 L 6.015625 -10.5 L 10.703125 0 L 9.40625 0 Z M 7.71875 -3.8125 L 5.359375 -9.140625 L 3.015625 -3.8125 Z M 7.71875 -3.8125 "/></g></g></g><g fill="#ffffff" fill-opacity="1"><g transform="translate(460.123193, 342.187503)"><g><path d="M 8.453125 0 L 6.28125 -3.34375 C 5.976562 -3.320312 5.742188 -3.3125 5.578125 -3.3125 L 2.796875 -3.3125 L 2.796875 0 L 1.59375 0 L 1.59375 -10.5 L 5.578125 -10.5 C 6.890625 -10.5 7.90625 -10.191406 8.625 -9.578125 C 9.351562 -8.960938 9.71875 -8.09375 9.71875 -6.96875 C 9.71875 -6.113281 9.515625 -5.394531 9.109375 -4.8125 C 8.703125 -4.226562 8.117188 -3.8125 7.359375 -3.5625 L 9.828125 0 Z M 2.796875 -4.46875 L 5.578125 -4.46875 C 6.535156 -4.46875 7.269531 -4.675781 7.78125 -5.09375 C 8.300781 -5.519531 8.5625 -6.132812 8.5625 -6.9375 C 8.5625 -7.726562 8.300781 -8.328125 7.78125 -8.734375 C 7.269531 -9.140625 6.535156 -9.34375 5.578125 -9.34375 L 2.796875 -9.34375 Z M 2.796875 -4.46875 "/></g></g></g><g fill="#ffffff" fill-opacity="1"><g transform="translate(472.093186, 342.187503)"><g><path d="M 2.796875 -1.140625 L 7.390625 -1.140625 L 7.390625 0 L 1.59375 0 L 1.59375 -10.5 L 2.796875 -10.5 Z M 2.796875 -1.140625 "/></g></g></g><g fill="#ffffff" fill-opacity="1"><g transform="translate(480.973182, 342.187503)"><g><path d="M 8.71875 -9.34375 L 2.796875 -9.34375 L 2.796875 -5.890625 L 8.078125 -5.890625 L 8.078125 -4.734375 L 2.796875 -4.734375 L 2.796875 -1.140625 L 8.90625 -1.140625 L 8.90625 0 L 1.59375 0 L 1.59375 -10.5 L 8.71875 -10.5 Z M 8.71875 -9.34375 "/></g></g></g><g fill="#ffffff" fill-opacity="1"><g transform="translate(491.863174, 342.187503)"><g><path d="M 10.3125 0 L 9.09375 0 L 2.796875 -8.4375 L 2.796875 0 L 1.59375 0 L 1.59375 -10.5 L 2.828125 -10.5 L 9.140625 -2.0625 L 9.140625 -10.5 L 10.3125 -10.5 Z M 10.3125 0 "/></g></g></g><g fill="#ffffff" fill-opacity="1"><g transform="translate(504.913157, 342.187503)"><g><path d="M 8.71875 -9.34375 L 2.796875 -9.34375 L 2.796875 -5.890625 L 8.078125 -5.890625 L 8.078125 -4.734375 L 2.796875 -4.734375 L 2.796875 -1.140625 L 8.90625 -1.140625 L 8.90625 0 L 1.59375 0 L 1.59375 -10.5 L 8.71875 -10.5 Z M 8.71875 -9.34375 "/></g></g></g><g fill="#ffffff" fill-opacity="1"><g transform="translate(515.803148, 342.187503)"><g/></g></g><g fill="#ffffff" fill-opacity="1"><g transform="translate(521.038145, 342.187503)"><g><path d="M 12.203125 0 L 11.09375 0 L 11.078125 -8.65625 L 7.265625 -1.109375 L 6.546875 -1.109375 L 2.734375 -8.65625 L 2.734375 0 L 1.59375 0 L 1.59375 -10.5 L 3.078125 -10.5 L 6.921875 -2.9375 L 10.734375 -10.5 L 12.203125 -10.5 Z M 12.203125 0 "/></g></g></g><g fill="#ffffff" fill-opacity="1"><g transform="translate(535.978131, 342.187503)"><g><path d="M 6.078125 -10.53125 C 6.785156 -10.53125 7.472656 -10.394531 8.140625 -10.125 C 8.816406 -9.851562 9.410156 -9.476562 9.921875 -9 L 9.1875 -8.078125 C 8.332031 -8.960938 7.300781 -9.40625 6.09375 -9.40625 C 4.90625 -9.40625 3.894531 -9 3.0625 -8.1875 C 2.226562 -7.382812 1.8125 -6.410156 1.8125 -5.265625 C 1.8125 -4.117188 2.226562 -3.140625 3.0625 -2.328125 C 3.894531 -1.523438 4.898438 -1.125 6.078125 -1.125 C 7.265625 -1.125 8.300781 -1.546875 9.1875 -2.390625 L 9.9375 -1.5625 C 8.78125 -0.476562 7.476562 0.0625 6.03125 0.0625 C 4.519531 0.0625 3.234375 -0.453125 2.171875 -1.484375 C 1.117188 -2.515625 0.59375 -3.773438 0.59375 -5.265625 C 0.59375 -6.734375 1.125 -7.976562 2.1875 -9 C 3.257812 -10.019531 4.554688 -10.53125 6.078125 -10.53125 Z M 6.078125 -10.53125 "/></g></g></g><g fill="#ffffff" fill-opacity="1"><g transform="translate(547.603119, 342.187503)"><g><path d="M 6.078125 -10.53125 C 6.785156 -10.53125 7.472656 -10.394531 8.140625 -10.125 C 8.816406 -9.851562 9.410156 -9.476562 9.921875 -9 L 9.1875 -8.078125 C 8.332031 -8.960938 7.300781 -9.40625 6.09375 -9.40625 C 4.90625 -9.40625 3.894531 -9 3.0625 -8.1875 C 2.226562 -7.382812 1.8125 -6.410156 1.8125 -5.265625 C 1.8125 -4.117188 2.226562 -3.140625 3.0625 -2.328125 C 3.894531 -1.523438 4.898438 -1.125 6.078125 -1.125 C 7.265625 -1.125 8.300781 -1.546875 9.1875 -2.390625 L 9.9375 -1.5625 C 8.78125 -0.476562 7.476562 0.0625 6.03125 0.0625 C 4.519531 0.0625 3.234375 -0.453125 2.171875 -1.484375 C 1.117188 -2.515625 0.59375 -3.773438 0.59375 -5.265625 C 0.59375 -6.734375 1.125 -7.976562 2.1875 -9 C 3.257812 -10.019531 4.554688 -10.53125 6.078125 -10.53125 Z M 6.078125 -10.53125 "/></g></g></g><g fill="#ffffff" fill-opacity="1"><g transform="translate(559.228107, 342.187503)"><g><path d="M 10.171875 -10.5 L 10.171875 -4.3125 C 10.171875 -2.945312 9.78125 -1.875 9 -1.09375 C 8.21875 -0.320312 7.144531 0.0625 5.78125 0.0625 C 4.394531 0.0625 3.304688 -0.320312 2.515625 -1.09375 C 1.734375 -1.875 1.34375 -2.945312 1.34375 -4.3125 L 1.34375 -10.5 L 2.546875 -10.5 L 2.546875 -4.3125 C 2.546875 -3.3125 2.832031 -2.523438 3.40625 -1.953125 C 3.988281 -1.378906 4.78125 -1.09375 5.78125 -1.09375 C 6.78125 -1.09375 7.5625 -1.375 8.125 -1.9375 C 8.6875 -2.507812 8.96875 -3.300781 8.96875 -4.3125 L 8.96875 -10.5 Z M 10.171875 -10.5 "/></g></g></g><g fill="#ffffff" fill-opacity="1"><g transform="translate(571.873095, 342.187503)"><g><path d="M 2.796875 -1.140625 L 7.390625 -1.140625 L 7.390625 0 L 1.59375 0 L 1.59375 -10.5 L 2.796875 -10.5 Z M 2.796875 -1.140625 "/></g></g></g><g fill="#ffffff" fill-opacity="1"><g transform="translate(580.753092, 342.187503)"><g><path d="M 2.796875 -1.140625 L 7.390625 -1.140625 L 7.390625 0 L 1.59375 0 L 1.59375 -10.5 L 2.796875 -10.5 Z M 2.796875 -1.140625 "/></g></g></g><g fill="#ffffff" fill-opacity="1"><g transform="translate(589.633089, 342.187503)"><g><path d="M 6.109375 -10.53125 C 7.640625 -10.53125 8.9375 -10.019531 10 -9 C 11.0625 -7.976562 11.59375 -6.726562 11.59375 -5.25 C 11.59375 -3.769531 11.0625 -2.515625 10 -1.484375 C 8.9375 -0.453125 7.640625 0.0625 6.109375 0.0625 C 4.566406 0.0625 3.257812 -0.453125 2.1875 -1.484375 C 1.125 -2.515625 0.59375 -3.769531 0.59375 -5.25 C 0.59375 -6.726562 1.125 -7.976562 2.1875 -9 C 3.257812 -10.019531 4.566406 -10.53125 6.109375 -10.53125 Z M 6.109375 -9.390625 C 4.921875 -9.390625 3.90625 -8.984375 3.0625 -8.171875 C 2.226562 -7.367188 1.8125 -6.394531 1.8125 -5.25 C 1.8125 -4.101562 2.226562 -3.125 3.0625 -2.3125 C 3.90625 -1.5 4.921875 -1.09375 6.109375 -1.09375 C 7.273438 -1.09375 8.273438 -1.5 9.109375 -2.3125 C 9.941406 -3.125 10.359375 -4.101562 10.359375 -5.25 C 10.359375 -6.394531 9.941406 -7.367188 9.109375 -8.171875 C 8.273438 -8.984375 7.273438 -9.390625 6.109375 -9.390625 Z M 6.109375 -9.390625 "/></g></g></g><g fill="#ffffff" fill-opacity="1"><g transform="translate(602.953073, 342.187503)"><g><path d="M 10.171875 -10.5 L 10.171875 -4.3125 C 10.171875 -2.945312 9.78125 -1.875 9 -1.09375 C 8.21875 -0.320312 7.144531 0.0625 5.78125 0.0625 C 4.394531 0.0625 3.304688 -0.320312 2.515625 -1.09375 C 1.734375 -1.875 1.34375 -2.945312 1.34375 -4.3125 L 1.34375 -10.5 L 2.546875 -10.5 L 2.546875 -4.3125 C 2.546875 -3.3125 2.832031 -2.523438 3.40625 -1.953125 C 3.988281 -1.378906 4.78125 -1.09375 5.78125 -1.09375 C 6.78125 -1.09375 7.5625 -1.375 8.125 -1.9375 C 8.6875 -2.507812 8.96875 -3.300781 8.96875 -4.3125 L 8.96875 -10.5 Z M 10.171875 -10.5 "/></g></g></g><g fill="#ffffff" fill-opacity="1"><g transform="translate(615.598061, 342.187503)"><g><path d="M 8.90625 -5.125 L 9.96875 -5.125 L 9.96875 -1.3125 C 9.445312 -0.894531 8.835938 -0.5625 8.140625 -0.3125 C 7.453125 -0.0625 6.765625 0.0625 6.078125 0.0625 C 4.554688 0.0625 3.257812 -0.453125 2.1875 -1.484375 C 1.125 -2.515625 0.59375 -3.769531 0.59375 -5.25 C 0.59375 -6.726562 1.128906 -7.976562 2.203125 -9 C 3.273438 -10.019531 4.585938 -10.53125 6.140625 -10.53125 C 7.628906 -10.53125 8.914062 -10.050781 10 -9.09375 L 9.3125 -8.1875 C 8.40625 -9 7.347656 -9.40625 6.140625 -9.40625 C 4.929688 -9.40625 3.90625 -9 3.0625 -8.1875 C 2.226562 -7.375 1.8125 -6.394531 1.8125 -5.25 C 1.8125 -4.09375 2.234375 -3.109375 3.078125 -2.296875 C 3.921875 -1.484375 4.945312 -1.078125 6.15625 -1.078125 C 7.132812 -1.078125 8.050781 -1.375 8.90625 -1.96875 Z M 8.90625 -5.125 "/></g></g></g><g fill="#ffffff" fill-opacity="1"><g transform="translate(628.018047, 342.187503)"><g><path d="M 10.3125 0 L 9.125 0 L 9.125 -4.625 L 2.796875 -4.625 L 2.796875 0 L 1.59375 0 L 1.59375 -10.5 L 2.796875 -10.5 L 2.796875 -5.765625 L 9.125 -5.765625 L 9.125 -10.5 L 10.3125 -10.5 Z M 10.3125 0 "/></g></g></g></svg>